<svg width="658" height="217" viewBox="0 0 658 217" fill="none" xmlns="http://www.w3.org/2000/svg">
<path d="M654.5 141.23L652.334 139.063L649.834 118.063C641 104.23 600.5 90.7304 584.334 86.7304C568.168 82.7304 558.334 77.5634 558.334 77.5634C539.668 74.8964 487.834 72.0634 482.166 71.8964C476.5 71.7294 463.082 71.3964 463.082 71.3964L379.916 21.2294C379.916 21.2294 342.971 -5.94456 213.498 6.06244C213.498 6.06244 157.166 9.56244 76.999 53.8964C76.999 53.8964 53.167 59.3954 45.333 60.0624C37.499 60.7294 20.666 60.5624 20.666 60.5624L17.333 66.8964C17.333 66.8964 29.666 106.728 6.333 122.562C6.333 122.562 6.166 137.229 4 140.729C4 140.729 7.667 149.562 5.167 155.062C5.167 155.062 9.334 169.563 11.667 171.396L19.667 171.896L80 180.229L82.375 180.562C82.375 180.562 82 124.686 130.166 114.186C130.166 114.186 160.76 108.462 181.166 126.977C206.332 149.811 200.832 186.229 200.832 186.229L496.457 189.798C496.457 189.798 495.132 149.143 520.397 126.53C544.763 104.724 580.409 111.54 597.332 125.561C610.759 136.686 620.436 157.303 617.123 191.436L649.666 186.562L649.5 181.396L653 180.396L654.166 161.229L653.334 157.229L654.5 141.23ZM297.678 73.2505C282.191 72.9025 146.205 68.5264 146.205 68.5264C146.205 68.5264 132.332 49.5634 145.665 44.2304C145.665 44.2304 176.493 28.2944 217.665 21.0634C251.008 15.2084 293.141 17.5734 315.332 18.8964C315.332 18.8964 353.066 23.7584 375.165 34.8964C397.268 46.0334 424.307 67.7714 443.833 81.3964C443.834 81.3964 310.21 73.5335 297.678 73.2505Z" stroke="black" stroke-width="6" stroke-miterlimit="10"/>
<path d="M207.018 7.70345C207.018 7.70345 194.081 1.56245 181.113 4.72245C181.113 4.72245 178.583 7.81245 177.833 12.8124" stroke="black" stroke-width="2" stroke-miterlimit="10"/>
<path d="M193.582 28.5624L200.457 70.0624L204.457 69.9374L197.082 26.8124" stroke="black" stroke-width="2" stroke-miterlimit="10"/>
<path d="M379.082 20.9374L371.457 24.9374C371.457 24.9374 416.159 49.2764 443.957 70.5624C443.957 70.5624 461.478 74.2654 467.832 73.3124" stroke="black" stroke-width="2" stroke-miterlimit="10"/>
<path d="M445.957 80.7285C445.957 80.7285 465.318 89.3305 467.832 109.937C469.707 125.312 465.759 171.968 464.09 178.401" stroke="black" stroke-width="2" stroke-miterlimit="10"/>
<path d="M372.165 25.2294C343.236 12.1824 277.69 4.18443 215.999 12.5624C174.029 18.2624 136.052 34.9194 103.998 49.5624C103.998 49.5624 85.332 59.0624 76.332 55.0624" stroke="black" stroke-width="2" stroke-miterlimit="10"/>
<path d="M286.207 19.0624L300.582 75.8124C300.582 75.8124 305.017 88.3864 306.207 92.4374C307.397 96.4874 313.457 115.812 308.457 171.812" stroke="black" stroke-width="2" stroke-miterlimit="10"/>
<path d="M148.957 69.0624C148.957 69.0624 157.486 83.1504 170.832 101.937C183.395 119.621 201.75 139.021 214.25 167.271C214.25 167.271 489.98 179.766 498.082 178.812" stroke="black" stroke-width="2" stroke-miterlimit="10"/>
<path d="M277.457 18.9374L285.582 73.4374L312.082 73.9374L295.082 19.4374" stroke="black" stroke-width="2" stroke-miterlimit="10"/>
<path d="M204.457 89.3124C204.457 89.3124 289.978 95.6734 310.707 96.3124" stroke="black" stroke-width="2" stroke-miterlimit="10"/>
<path d="M347.582 99.1874C347.582 99.1874 490.532 112.128 498.582 113.062C498.582 113.062 507.957 113.437 506.082 118.812C504.207 124.187 496.832 145.687 478.582 145.187C478.582 145.187 490.582 146.312 504.457 115.312" stroke="black" stroke-width="2" stroke-miterlimit="10"/>
<path d="M459.832 73.4374C459.832 73.4374 473.454 86.1324 486.082 87.5624C486.082 87.5624 570.957 96.8124 586.457 100.062C599.684 102.835 618.332 107.812 624.457 111.937" stroke="black" stroke-width="2" stroke-miterlimit="10"/>
<path d="M167.707 87.0625C167.707 87.0625 57.398 83.4195 33.332 83.8965" stroke="black" stroke-width="2" stroke-miterlimit="10"/>
<path d="M201.082 167.062L212.832 167.271" stroke="black" stroke-width="2" stroke-miterlimit="10"/>
<path d="M498.457 126.687H471.457C471.457 126.687 471.707 129.812 474.957 129.937C478.207 130.062 496.082 130.312 496.082 130.312" stroke="black" stroke-width="2" stroke-miterlimit="10"/>
<path d="M632.582 188.562C632.582 188.562 639.207 155.812 644.082 156.312C648.957 156.812 652.957 158.812 652.957 158.812" stroke="black" stroke-width="2" stroke-miterlimit="10"/>
<path d="M641.332 186.562L638.832 164.562" stroke="black" stroke-width="2" stroke-miterlimit="10"/>
<path d="M651.832 166.312L640.082 174.812" stroke="black" stroke-width="2" stroke-miterlimit="10"/>
<path d="M649.707 179.937L640.332 177.937" stroke="black" stroke-width="2" stroke-miterlimit="10"/>
<path d="M649.832 167.562C649.832 167.562 644.207 164.437 639.332 164.812" stroke="black" stroke-width="2" stroke-miterlimit="10"/>
<path d="M652.207 138.562C652.207 138.562 644.207 131.187 643.957 128.812L641.207 135.062C641.207 135.062 629.457 133.312 599.707 114.437C599.707 114.437 620.332 106.937 642.582 118.687C642.582 118.687 644.582 119.687 649.707 118.562" stroke="black" stroke-width="2" stroke-miterlimit="10"/>
<path d="M582.832 117.812C582.832 117.812 594.082 114.437 601.832 114.312" stroke="black" stroke-width="2" stroke-miterlimit="10"/>
<path d="M643.291 118.603C643.291 118.603 644.207 126.355 642.832 131.605" stroke="black" stroke-width="2" stroke-miterlimit="10"/>
<path d="M598.832 114.812C598.832 114.812 629.582 139.687 647.082 142.562L653.832 144.062" stroke="black" stroke-width="2" stroke-miterlimit="10"/>
<path d="M599.957 126.562C599.957 126.562 615.332 134.562 624.332 133.062" stroke="black" stroke-width="2" stroke-miterlimit="10"/>
<path d="M603.832 116.812C603.832 116.812 636.457 116.062 643.707 122.187" stroke="black" stroke-width="2" stroke-miterlimit="10"/>
<path d="M438.957 75.2714L443.957 70.5624" stroke="black" stroke-width="2" stroke-miterlimit="10"/>
<path d="M474 79.2294C474 79.2294 574.166 85.3964 610.666 96.7294" stroke="black" stroke-width="2" stroke-miterlimit="10"/>
<path d="M197.165 75.3964C197.165 75.3964 466.332 87.5634 524.332 94.8964" stroke="black" stroke-width="2" stroke-miterlimit="10"/>
<path d="M21.998 61.3965C21.998 61.3965 10.498 66.5635 143.498 66.3965" stroke="black" stroke-width="2" stroke-miterlimit="10"/>
<path d="M22.165 83.2295L25.498 69.5625L32.832 64.3965" stroke="black" stroke-width="2" stroke-miterlimit="10"/>
<path d="M20.998 101.396C20.998 101.396 29.499 104.73 39.332 97.8964C49.165 91.0624 54.332 86.3964 54.332 83.3964C54.332 80.3964 46.831 75.2284 24.498 73.5624" stroke="black" stroke-width="2" stroke-miterlimit="10"/>
<path d="M26.998 101.396C26.998 101.396 37.166 85.2294 29.332 74.7294" stroke="black" stroke-width="2" stroke-miterlimit="10"/>
<path d="M35.332 100.562C35.332 100.562 35.665 105.396 47.665 108.729C59.665 112.062 106.665 125.562 106.665 125.562" stroke="black" stroke-width="2" stroke-miterlimit="10"/>
<path d="M25.498 102.562C25.498 102.562 22.998 121.062 8.49805 126.562" stroke="black" stroke-width="2" stroke-miterlimit="10"/>
<path d="M7.49902 125.229C7.49902 125.229 28.332 130.563 69.499 135.229" stroke="black" stroke-width="2" stroke-miterlimit="10"/>
<path d="M19.9981 171.062C19.9981 171.062 12.6651 143.895 5.83105 141.062" stroke="black" stroke-width="2" stroke-miterlimit="10"/>
<path d="M17.998 162.729L75.832 170.895" stroke="black" stroke-width="2" stroke-miterlimit="10"/>
<path d="M221.332 174.271C221.332 174.271 387.165 176.77 471.166 182.604" stroke="black" stroke-width="2" stroke-miterlimit="10"/>
<path d="M347.249 98.9794C347.249 98.9794 347.833 97.6454 345.916 97.2294C343.999 96.8134 322.66 92.8134 314.333 93.2294C309.333 93.4794 311.583 99.4804 313.333 99.5634C313.333 99.5634 342.752 100.744 345.833 100.229C347.333 99.9794 347.249 98.9794 347.249 98.9794Z" stroke="black" stroke-width="2" stroke-miterlimit="10"/>
<path d="M339.499 95.5634C339.499 95.5634 337.417 91.3134 329.833 91.3134C322.249 91.3134 321.499 93.1464 321.499 93.1464" stroke="black" stroke-width="2" stroke-miterlimit="10"/>
<path d="M320.916 100.313C320.916 100.313 323.416 103.729 329.916 103.729C336.416 103.729 340.583 100.479 340.583 100.479" stroke="black" stroke-width="2" stroke-miterlimit="10"/>
<path d="M204.582 89.6454C204.582 89.6454 205.166 88.3114 203.249 87.8954C201.332 87.4794 179.993 83.4794 171.666 83.8954C166.666 84.1454 168.916 90.1464 170.666 90.2294C170.666 90.2294 200.085 91.4104 203.166 90.8954C204.666 90.6454 204.582 89.6454 204.582 89.6454Z" stroke="black" stroke-width="2" stroke-miterlimit="10"/>
<path d="M196.832 86.2294C196.832 86.2294 194.75 81.9794 187.166 81.9794C179.582 81.9794 178.832 83.8124 178.832 83.8124" stroke="black" stroke-width="2" stroke-miterlimit="10"/>
<path d="M178.249 90.9794C178.249 90.9794 180.749 94.3954 187.249 94.3954C193.749 94.3954 197.916 91.1454 197.916 91.1454" stroke="black" stroke-width="2" stroke-miterlimit="10"/>
<path d="M318.583 93.7294V99.3134" stroke="black" stroke-width="2" stroke-miterlimit="10"/>
<path d="M505.957 116.062C505.957 116.062 506.832 122.062 527.332 119.562" stroke="black" stroke-width="2" stroke-miterlimit="10"/>
<path d="M407.082 59.0624C407.082 59.0624 418.832 59.3124 420.707 62.6874C422.582 66.0624 423.832 73.8124 428.332 76.0624C432.832 78.3124 434.207 81.4374 429.957 82.6874C425.707 83.9374 406.832 82.6874 404.582 79.4374C402.332 76.1874 399.957 67.3124 407.082 59.0624Z" stroke="black" stroke-width="2" stroke-miterlimit="10"/>
<path d="M423.832 71.8124C423.832 71.8124 411.707 70.0624 402.832 70.9374" stroke="black" stroke-width="2" stroke-miterlimit="10"/>
<path d="M559.94 213.612C585.069 213.612 605.44 193.241 605.44 168.112C605.44 142.983 585.069 122.612 559.94 122.612C534.811 122.612 514.44 142.983 514.44 168.112C514.44 193.241 534.811 213.612 559.94 213.612Z" stroke="black" stroke-width="6" stroke-miterlimit="10"/>
<path d="M521.759 158.826C526.891 137.735 548.142 124.805 569.231 129.931C590.316 135.063 603.252 156.313 598.124 177.4C592.993 198.486 571.742 211.421 550.655 206.293C529.563 201.164 516.632 179.912 521.759 158.826Z" stroke="black" stroke-width="2" stroke-miterlimit="10"/>
<path d="M559.94 172.049C562.115 172.049 563.878 170.286 563.878 168.111C563.878 165.937 562.115 164.173 559.94 164.173C557.765 164.173 556.002 165.937 556.002 168.111C556.002 170.286 557.765 172.049 559.94 172.049Z" stroke="black" stroke-width="2" stroke-miterlimit="10"/>
<path d="M551.457 167.543C552.487 167.543 553.323 166.708 553.323 165.677C553.323 164.647 552.487 163.811 551.457 163.811C550.426 163.811 549.591 164.647 549.591 165.677C549.591 166.708 550.426 167.543 551.457 167.543Z" stroke="black" stroke-width="2" stroke-miterlimit="10"/>
<path d="M527.637 177.203C535.686 173.016 543.897 172.349 548.233 172.338C538.713 177.674 531.021 178.455 528.111 178.539L527.637 177.203ZM525.183 176.266L526.692 180.526C526.692 180.526 537.873 181.441 552.245 172.266L551.599 170.479C551.599 170.479 538.014 168.869 525.183 176.266Z" fill="black"/>
<path d="M528.082 157.828C529.847 152.398 532.572 148.437 534.312 146.285C537.959 151.762 543.199 157.266 545.592 159.68C544.947 160.664 544.436 161.746 544.056 162.916C543.648 164.172 543.456 165.354 543.368 166.316C537.617 166.293 530.193 168.574 526.333 169.912C526.231 165.777 526.817 161.721 528.082 157.828ZM526.181 157.208C524.778 161.523 523.936 166.731 524.496 172.714C524.496 172.714 537.871 167.421 545.337 168.443C545.337 168.443 545.098 166.186 545.959 163.532C546.391 162.204 547.097 160.782 548.247 159.489C548.247 159.489 538.994 150.611 534.601 142.964C534.603 142.964 529.142 148.093 526.181 157.208Z" fill="black"/>
<path d="M529.008 169.625C529.008 169.625 528.74 158.849 536.14 147.67" stroke="black" stroke-width="2" stroke-miterlimit="10"/>
<path d="M555.08 177.641C556.11 177.641 556.946 176.806 556.946 175.775C556.946 174.745 556.11 173.909 555.08 173.909C554.049 173.909 553.214 174.745 553.214 175.775C553.214 176.806 554.049 177.641 555.08 177.641Z" stroke="black" stroke-width="2" stroke-miterlimit="10"/>
<path d="M558.68 201.992C557.186 193.043 559.088 185.026 560.418 180.899C562.551 191.602 560.915 199.16 560.097 201.953L558.68 201.992ZM557.031 204.035L561.55 203.918C561.55 203.918 565.875 193.566 561.591 177.064L559.692 177.126C559.69 177.125 553.962 189.546 557.031 204.035Z" fill="black"/>
<path d="M540.39 195.582C535.773 192.226 532.848 188.408 531.338 186.088C537.673 184.312 544.527 181.029 547.563 179.498C548.3 180.414 549.171 181.236 550.167 181.959C551.234 182.735 552.3 183.283 553.188 183.664C551.387 189.127 551.262 196.893 551.343 200.977C547.38 199.796 543.703 197.986 540.39 195.582ZM539.216 197.197C542.888 199.865 547.579 202.275 553.444 203.59C553.444 203.59 552.544 189.236 555.822 182.451C555.822 182.451 553.601 181.98 551.343 180.342C550.213 179.522 549.076 178.41 548.203 176.916C548.203 176.916 536.9 182.973 528.27 184.787C528.27 184.787 531.462 191.564 539.216 197.197Z" fill="black"/>
<path d="M551.896 198.345C551.896 198.345 541.565 195.269 533.22 184.779" stroke="black" stroke-width="2" stroke-miterlimit="10"/>
<path d="M565.803 177.315C566.834 177.315 567.669 176.48 567.669 175.449C567.669 174.419 566.834 173.583 565.803 173.583C564.772 173.583 563.937 174.419 563.937 175.449C563.937 176.48 564.772 177.315 565.803 177.315Z" stroke="black" stroke-width="2" stroke-miterlimit="10"/>
<path d="M591.848 180.126C582.874 178.782 575.84 174.495 572.327 171.954C583.166 173.233 589.848 177.124 592.252 178.767L591.848 180.126ZM593.282 182.326L594.566 177.994C594.566 177.994 586.058 170.682 569.038 169.656L568.511 171.481C568.51 171.481 578.555 180.769 593.282 182.326Z" fill="black"/>
<path d="M580.1 195.541C575.481 198.895 570.948 200.498 568.274 201.217C568.543 194.644 567.541 187.11 567.021 183.75C568.12 183.332 569.171 182.758 570.167 182.035C571.234 181.258 572.086 180.416 572.723 179.686C577.362 183.085 584.708 185.605 588.619 186.79C586.269 190.197 583.411 193.132 580.1 195.541ZM581.273 197.158C584.945 194.49 588.687 190.772 591.75 185.602C591.75 185.602 577.818 182.023 572.381 176.807C572.381 176.807 571.247 178.775 568.989 180.415C567.86 181.234 566.452 181.973 564.762 182.341C564.762 182.341 567.029 194.962 566.087 203.731C566.089 203.731 573.52 202.791 581.273 197.158Z" fill="black"/>
<path d="M586.285 185.453C586.285 185.453 580.168 194.328 567.611 199.021" stroke="black" stroke-width="2" stroke-miterlimit="10"/>
<path d="M568.807 167.016C569.837 167.016 570.673 166.181 570.673 165.15C570.673 164.12 569.837 163.284 568.807 163.284C567.776 163.284 566.941 164.12 566.941 165.15C566.941 166.181 567.776 167.016 568.807 167.016Z" stroke="black" stroke-width="2" stroke-miterlimit="10"/>
<path d="M581.304 141.826C577.253 149.944 571.002 155.31 567.499 157.867C572.064 147.955 577.829 142.804 580.135 141.023L581.304 141.826ZM583.839 141.141L580.115 138.581C580.115 138.581 570.531 144.411 564.298 160.282L565.869 161.348C565.869 161.35 577.807 154.666 583.839 141.141Z" fill="black"/>
<path d="M592.332 157.762C594.097 163.192 594.219 167.997 594.075 170.763C587.906 168.477 580.431 167.102 577.077 166.557C577.017 165.382 576.798 164.204 576.418 163.036C576.01 161.78 575.471 160.71 574.975 159.88C579.643 156.52 584.308 150.311 586.644 146.956C589.156 150.244 591.066 153.869 592.332 157.762ZM594.233 157.145C592.832 152.83 590.451 148.121 586.48 143.611C586.48 143.611 578.771 155.756 572.13 159.315C572.13 159.315 573.651 161.002 574.514 163.655C574.946 164.982 575.211 166.551 575.04 168.27C575.04 168.27 587.742 170.014 595.79 173.619C595.793 173.619 597.195 166.259 594.233 157.145Z" fill="black"/>
<path d="M584.649 148.761C584.649 148.761 591.199 157.324 591.783 170.714" stroke="black" stroke-width="2" stroke-miterlimit="10"/>
<path d="M559.94 160.977C560.971 160.977 561.806 160.142 561.806 159.111C561.806 158.081 560.971 157.245 559.94 157.245C558.91 157.245 558.074 158.081 558.074 159.111C558.074 160.142 558.91 160.977 559.94 160.977Z" stroke="black" stroke-width="2" stroke-miterlimit="10"/>
<path d="M541.619 140.018C548.089 146.378 551.261 153.982 552.609 158.103C544.592 150.699 541.474 143.624 540.494 140.88L541.619 140.018ZM541.752 137.396L538.166 140.146C538.166 140.146 540.75 151.063 553.919 161.896L555.419 160.73C555.419 160.73 552.752 147.312 541.752 137.396Z" fill="black"/>
<path d="M560.184 134.455C565.893 134.455 570.499 135.824 573.087 136.814C569.006 141.974 565.389 148.658 563.834 151.68C562.698 151.374 561.511 151.22 560.28 151.22C558.961 151.22 557.775 151.402 556.834 151.616C555.079 146.137 550.616 139.782 548.148 136.524C552.052 135.151 556.09 134.455 560.184 134.455ZM560.184 132.455C555.646 132.455 550.433 133.265 544.915 135.646C544.915 135.646 554.083 146.73 555.418 154.146C555.418 154.146 557.49 153.22 560.28 153.22C561.676 153.22 563.249 153.45 564.833 154.146C564.833 154.146 570.417 142.604 576.333 136.063C576.334 136.063 569.768 132.455 560.184 132.455Z" fill="black"/>
<path d="M549.25 138.979C549.25 138.979 559.416 135.395 572.332 138.979" stroke="black" stroke-width="2" stroke-miterlimit="10"/>
<path d="M142.94 213.612C168.069 213.612 188.44 193.241 188.44 168.112C188.44 142.983 168.069 122.612 142.94 122.612C117.811 122.612 97.4399 142.983 97.4399 168.112C97.4399 193.241 117.811 213.612 142.94 213.612Z" stroke="black" stroke-width="6" stroke-miterlimit="10"/>
<path d="M104.758 158.826C109.891 137.735 131.142 124.805 152.231 129.931C173.316 135.063 186.251 156.313 181.123 177.4C175.993 198.486 154.742 211.421 133.655 206.293C112.563 201.164 99.631 179.912 104.758 158.826Z" stroke="black" stroke-width="2" stroke-miterlimit="10"/>
<path d="M142.94 172.049C145.115 172.049 146.878 170.286 146.878 168.111C146.878 165.937 145.115 164.173 142.94 164.173C140.765 164.173 139.002 165.937 139.002 168.111C139.002 170.286 140.765 172.049 142.94 172.049Z" stroke="black" stroke-width="2" stroke-miterlimit="10"/>
<path d="M134.457 167.543C135.487 167.543 136.323 166.708 136.323 165.677C136.323 164.647 135.487 163.811 134.457 163.811C133.426 163.811 132.591 164.647 132.591 165.677C132.591 166.708 133.426 167.543 134.457 167.543Z" stroke="black" stroke-width="2" stroke-miterlimit="10"/>
<path d="M110.637 177.203C118.686 173.016 126.897 172.349 131.233 172.338C121.712 177.674 114.021 178.455 111.111 178.539L110.637 177.203ZM108.183 176.266L109.692 180.526C109.692 180.526 120.873 181.441 135.245 172.266L134.599 170.479C134.599 170.479 121.014 168.869 108.183 176.266Z" fill="black"/>
<path d="M111.081 157.828C112.847 152.398 115.572 148.437 117.312 146.285C120.958 151.762 126.199 157.266 128.592 159.68C127.947 160.664 127.436 161.746 127.056 162.916C126.648 164.172 126.455 165.354 126.368 166.316C120.617 166.293 113.193 168.574 109.332 169.912C109.231 165.777 109.817 161.721 111.081 157.828ZM109.181 157.208C107.778 161.523 106.936 166.731 107.496 172.714C107.496 172.714 120.871 167.421 128.336 168.443C128.336 168.443 128.098 166.186 128.958 163.532C129.391 162.204 130.097 160.782 131.246 159.489C131.246 159.489 121.994 150.611 117.601 142.964C117.603 142.964 112.142 148.093 109.181 157.208Z" fill="black"/>
<path d="M112.007 169.625C112.007 169.625 111.74 158.849 119.14 147.67" stroke="black" stroke-width="2" stroke-miterlimit="10"/>
<path d="M138.08 177.641C139.11 177.641 139.946 176.806 139.946 175.775C139.946 174.745 139.11 173.909 138.08 173.909C137.049 173.909 136.214 174.745 136.214 175.775C136.214 176.806 137.049 177.641 138.08 177.641Z" stroke="black" stroke-width="2" stroke-miterlimit="10"/>
<path d="M141.68 201.992C140.186 193.043 142.087 185.026 143.417 180.899C145.551 191.602 143.915 199.16 143.097 201.953L141.68 201.992ZM140.031 204.035L144.549 203.918C144.549 203.918 148.874 193.566 144.59 177.064L142.692 177.126C142.69 177.125 136.961 189.546 140.031 204.035Z" fill="black"/>
<path d="M123.39 195.582C118.773 192.226 115.848 188.408 114.337 186.088C120.672 184.312 127.527 181.029 130.563 179.498C131.3 180.414 132.17 181.236 133.167 181.959C134.235 182.735 135.301 183.283 136.189 183.664C134.388 189.127 134.263 196.893 134.344 200.977C130.379 199.796 126.703 197.986 123.39 195.582ZM122.215 197.197C125.888 199.865 130.579 202.275 136.444 203.59C136.444 203.59 135.543 189.236 138.822 182.451C138.822 182.451 136.601 181.98 134.343 180.342C133.212 179.522 132.076 178.41 131.203 176.916C131.203 176.916 119.9 182.973 111.27 184.787C111.27 184.787 114.461 191.564 122.215 197.197Z" fill="black"/>
<path d="M134.896 198.345C134.896 198.345 124.565 195.269 116.22 184.779" stroke="black" stroke-width="2" stroke-miterlimit="10"/>
<path d="M148.803 177.315C149.834 177.315 150.669 176.48 150.669 175.449C150.669 174.419 149.834 173.583 148.803 173.583C147.772 173.583 146.937 174.419 146.937 175.449C146.937 176.48 147.772 177.315 148.803 177.315Z" stroke="black" stroke-width="2" stroke-miterlimit="10"/>
<path d="M174.848 180.126C165.874 178.782 158.839 174.495 155.327 171.954C166.165 173.233 172.848 177.124 175.251 178.767L174.848 180.126ZM176.282 182.326L177.566 177.994C177.566 177.994 169.058 170.682 152.038 169.656L151.511 171.481C151.51 171.481 161.555 180.769 176.282 182.326Z" fill="black"/>
<path d="M163.1 195.541C158.481 198.895 153.948 200.498 151.274 201.217C151.542 194.644 150.54 187.11 150.021 183.75C151.12 183.332 152.17 182.758 153.166 182.035C154.234 181.258 155.085 180.416 155.723 179.686C160.362 183.085 167.707 185.605 171.619 186.79C169.269 190.197 166.411 193.132 163.1 195.541ZM164.273 197.158C167.945 194.49 171.687 190.772 174.75 185.602C174.75 185.602 160.818 182.023 155.38 176.807C155.38 176.807 154.247 178.775 151.989 180.415C150.86 181.234 149.452 181.973 147.762 182.341C147.762 182.341 150.029 194.962 149.086 203.731C149.088 203.731 156.52 202.791 164.273 197.158Z" fill="black"/>
<path d="M169.285 185.453C169.285 185.453 163.167 194.328 150.611 199.021" stroke="black" stroke-width="2" stroke-miterlimit="10"/>
<path d="M151.807 167.016C152.837 167.016 153.673 166.181 153.673 165.15C153.673 164.12 152.837 163.284 151.807 163.284C150.776 163.284 149.941 164.12 149.941 165.15C149.941 166.181 150.776 167.016 151.807 167.016Z" stroke="black" stroke-width="2" stroke-miterlimit="10"/>
<path d="M164.304 141.826C160.252 149.944 154.001 155.31 150.499 157.867C155.064 147.955 160.829 142.804 163.135 141.023L164.304 141.826ZM166.838 141.141L163.115 138.581C163.115 138.581 153.531 144.411 147.297 160.282L148.869 161.348C148.869 161.35 160.807 154.666 166.838 141.141Z" fill="black"/>
<path d="M175.332 157.762C177.097 163.192 177.219 167.997 177.075 170.763C170.906 168.477 163.431 167.102 160.077 166.557C160.017 165.382 159.797 164.204 159.417 163.036C159.01 161.78 158.471 160.71 157.975 159.88C162.643 156.52 167.308 150.311 169.644 146.956C172.156 150.244 174.066 153.869 175.332 157.762ZM177.233 157.145C175.831 152.83 173.451 148.121 169.48 143.611C169.48 143.611 161.771 155.756 155.129 159.315C155.129 159.315 156.65 161.002 157.514 163.655C157.946 164.982 158.21 166.551 158.039 168.27C158.039 168.27 170.742 170.014 178.79 173.619C178.792 173.619 180.195 166.259 177.233 157.145Z" fill="black"/>
<path d="M167.649 148.761C167.649 148.761 174.199 157.324 174.783 170.714" stroke="black" stroke-width="2" stroke-miterlimit="10"/>
<path d="M142.94 160.977C143.971 160.977 144.806 160.142 144.806 159.111C144.806 158.081 143.971 157.245 142.94 157.245C141.91 157.245 141.074 158.081 141.074 159.111C141.074 160.142 141.91 160.977 142.94 160.977Z" stroke="black" stroke-width="2" stroke-miterlimit="10"/>
<path d="M124.619 140.018C131.088 146.378 134.261 153.982 135.609 158.103C127.592 150.699 124.474 143.624 123.494 140.88L124.619 140.018ZM124.751 137.396L121.166 140.146C121.166 140.146 123.75 151.063 136.918 161.896L138.418 160.73C138.418 160.73 135.751 147.312 124.751 137.396Z" fill="black"/>
<path d="M143.184 134.455C148.893 134.455 153.499 135.824 156.086 136.814C152.005 141.974 148.389 148.658 146.833 151.68C145.698 151.374 144.511 151.22 143.28 151.22C141.96 151.22 140.775 151.402 139.833 151.616C138.079 146.137 133.616 139.782 131.148 136.524C135.052 135.151 139.089 134.455 143.184 134.455ZM143.184 132.455C138.646 132.455 133.433 133.265 127.915 135.646C127.915 135.646 137.082 146.73 138.417 154.146C138.417 154.146 140.49 153.22 143.28 153.22C144.676 153.22 146.249 153.45 147.833 154.146C147.833 154.146 153.417 142.604 159.332 136.063C159.333 136.063 152.768 132.455 143.184 132.455Z" fill="black"/>
<path d="M132.249 138.979C132.249 138.979 142.415 135.395 155.332 138.979" stroke="black" stroke-width="2" stroke-miterlimit="10"/>
</svg>
