<?xml version="1.0" standalone="no"?>
<!DOCTYPE svg PUBLIC "-//W3C//DTD SVG 20010904//EN"
 "http://www.w3.org/TR/2001/REC-SVG-20010904/DTD/svg10.dtd">
<svg version="1.0" xmlns="http://www.w3.org/2000/svg"
 width="2632.000000pt" height="2632.000000pt" viewBox="0 0 2632.000000 2632.000000"
 preserveAspectRatio="xMidYMid meet">
<metadata>
Created by potrace 1.14, written by Peter Selinger 2001-2017
</metadata>
<g transform="translate(0.000000,2632.000000) scale(0.100000,-0.100000)"
fill="#000000" stroke="none">
<path d="M10438 17495 c-3 -3 -369 -17 -403 -15 -24 1 -23 2 -105 -4 -36 -3
-126 -7 -200 -11 -74 -3 -162 -8 -195 -10 -33 -2 -98 -7 -145 -10 -47 -3 -114
-7 -150 -10 -36 -2 -99 -7 -140 -10 -41 -2 -100 -7 -130 -9 -30 -3 -89 -8
-130 -11 -41 -3 -95 -8 -120 -11 -25 -2 -70 -6 -100 -8 -52 -4 -93 -8 -220
-22 -30 -3 -70 -8 -89 -10 -37 -4 -71 -9 -171 -25 -36 -6 -69 -11 -75 -11 -16
0 -78 12 -85 17 -4 3 -25 7 -45 11 -21 3 -47 8 -59 10 -112 26 -369 38 -476
23 -36 -5 -78 -11 -95 -14 -16 -2 -31 -5 -32 -6 -2 -1 -6 -2 -10 -3 -39 -9
-57 -25 -85 -74 -40 -69 -54 -98 -66 -137 -8 -27 -16 -32 -85 -51 -42 -12 -77
-19 -77 -16 0 2 -6 0 -12 -6 -12 -9 -26 -13 -93 -26 -11 -3 -51 -14 -89 -26
-38 -12 -76 -23 -85 -25 -50 -10 -550 -169 -579 -184 -12 -6 -22 -10 -22 -7 0
2 -51 -14 -112 -36 -62 -22 -156 -55 -208 -73 -52 -19 -138 -50 -190 -70 -52
-20 -99 -38 -105 -39 -5 -2 -19 -7 -30 -11 -11 -4 -110 -44 -220 -87 -249 -99
-429 -175 -675 -285 -30 -14 -71 -31 -90 -40 -19 -8 -42 -19 -50 -24 -8 -5
-22 -12 -30 -15 -50 -20 -202 -90 -345 -160 -55 -26 -102 -47 -104 -45 -2 1
-7 -1 -10 -6 -3 -4 -94 -52 -201 -106 -209 -106 -348 -177 -475 -246 -44 -24
-107 -58 -140 -76 -39 -21 -98 -40 -170 -55 -60 -12 -137 -29 -170 -37 -33 -8
-73 -17 -89 -19 -15 -2 -36 -6 -46 -9 -10 -3 -29 -8 -42 -10 -13 -3 -48 -10
-78 -16 -30 -7 -64 -13 -75 -15 -11 -1 -21 -3 -22 -4 -4 -3 -12 -5 -63 -14
-25 -5 -54 -10 -65 -13 -11 -2 -29 -6 -40 -7 -42 -7 -91 -17 -105 -21 -8 -2
-33 -7 -55 -10 -23 -3 -52 -7 -65 -10 -23 -4 -40 -7 -137 -20 -78 -11 -163
-16 -322 -20 -90 -2 -165 -6 -168 -8 -2 -3 -19 -1 -38 3 -19 4 -36 6 -39 3 -8
-9 -166 -8 -166 0 0 5 -5 5 -12 1 -17 -10 -248 -11 -248 -1 0 5 -5 5 -12 1 -6
-4 -31 -7 -54 -7 -51 1 -53 -1 -108 -109 -24 -46 -64 -123 -89 -171 -45 -87
-46 -90 -32 -125 14 -36 33 -106 41 -147 4 -19 9 -44 20 -95 3 -14 7 -38 10
-55 3 -16 8 -41 10 -55 3 -14 7 -36 8 -50 10 -76 18 -135 21 -150 6 -29 16
-241 17 -335 0 -92 -8 -240 -17 -298 -3 -18 -7 -45 -9 -62 -15 -105 -75 -312
-110 -380 -9 -16 -16 -33 -16 -37 0 -13 -97 -172 -127 -207 -69 -85 -130 -143
-207 -200 l-84 -62 -2 -102 c-3 -180 -15 -368 -25 -407 -2 -8 -7 -35 -10 -60
-14 -101 -43 -187 -66 -198 -4 -2 1 -24 11 -50 32 -82 33 -84 56 -172 9 -36
18 -109 20 -163 3 -80 0 -107 -16 -148 -20 -49 -20 -52 -3 -117 10 -37 22 -70
26 -73 5 -3 8 -9 7 -13 -3 -13 77 -262 110 -341 45 -108 105 -216 136 -247 20
-21 40 -38 43 -39 11 -2 75 -7 181 -14 181 -11 265 -19 318 -31 12 -2 44 -7
70 -10 26 -3 58 -7 72 -9 14 -2 43 -6 65 -9 22 -3 90 -12 150 -21 114 -16 155
-22 215 -29 19 -3 52 -7 73 -10 123 -19 237 -34 295 -41 29 -3 74 -9 100 -14
26 -5 54 -9 62 -9 8 0 49 -5 90 -11 41 -6 93 -14 115 -16 22 -3 51 -8 65 -10
14 -3 42 -7 64 -10 21 -2 57 -7 80 -10 159 -21 195 -26 226 -31 50 -8 88 -13
145 -19 28 -4 57 -8 65 -10 8 -2 40 -7 70 -10 30 -3 62 -8 70 -10 8 -3 38 -7
65 -10 28 -3 70 -8 95 -10 25 -3 52 -7 60 -9 8 -3 38 -7 65 -11 28 -3 66 -8
86 -10 l35 -5 1 112 c0 118 11 272 26 368 3 19 9 58 13 85 3 28 8 59 10 70 10
49 16 81 18 90 1 6 8 37 15 70 21 98 72 279 83 293 6 6 8 12 5 12 -6 0 14 64
32 105 5 11 14 36 21 55 7 19 21 54 31 78 11 24 27 62 36 85 9 23 20 47 24 52
4 6 27 48 51 95 47 90 70 132 78 140 3 3 27 39 54 80 27 41 53 76 58 78 4 2 8
10 8 17 0 7 3 15 8 17 4 2 29 30 56 63 119 145 329 330 493 434 61 38 213 117
273 141 30 12 64 26 75 30 29 12 59 23 70 26 6 1 36 12 69 23 32 11 62 18 67
15 5 -3 9 0 9 7 0 7 3 10 6 6 3 -3 17 -1 31 4 38 14 188 39 278 45 110 8 396
8 475 0 141 -14 200 -22 303 -41 15 -3 37 -7 50 -9 49 -9 181 -46 269 -77 83
-28 128 -47 258 -107 179 -83 441 -291 580 -461 19 -24 45 -55 58 -69 79 -93
282 -437 282 -478 0 -8 5 -14 10 -14 6 0 10 -6 10 -14 0 -7 8 -31 17 -52 9
-22 18 -43 19 -49 2 -5 14 -40 28 -77 14 -38 23 -68 21 -68 -2 0 3 -17 11 -37
9 -20 18 -46 20 -56 2 -11 12 -56 23 -101 11 -44 23 -94 25 -111 40 -243 39
-232 51 -400 6 -76 6 -358 1 -415 -12 -126 -18 -176 -25 -216 -6 -32 -5 -47 3
-49 9 -3 894 -18 944 -16 6 1 18 1 25 2 6 0 206 -2 442 -5 619 -9 1121 -15
1675 -21 267 -3 645 -7 840 -10 195 -3 549 -7 785 -10 451 -5 869 -11 1675
-20 267 -4 616 -8 776 -9 160 -2 296 -6 302 -10 7 -4 12 -3 12 2 0 9 64 7 80
-3 6 -3 10 -1 10 5 0 6 4 8 10 5 5 -3 218 -8 472 -10 255 -3 634 -7 843 -10
692 -9 1285 -16 1640 -20 433 -5 1225 -15 1402 -17 73 -1 134 0 137 3 3 2 7
106 10 229 3 124 7 239 10 255 2 17 7 59 10 95 4 36 13 108 22 160 21 134 24
153 29 170 2 8 7 31 10 50 10 58 55 248 69 293 8 23 17 56 22 72 8 34 9 35 17
55 3 8 18 51 33 95 36 107 132 331 161 377 12 21 23 41 23 46 0 8 134 236 151
256 5 6 27 34 47 63 105 144 277 322 412 427 47 37 90 71 97 76 7 6 24 15 38
22 14 6 25 15 25 20 0 4 4 8 9 8 5 0 38 17 72 38 126 75 399 187 501 206 12 2
41 9 63 14 22 6 54 14 70 17 17 2 44 7 60 11 31 6 53 8 170 21 86 9 388 9 470
-1 87 -10 147 -18 170 -22 11 -3 36 -7 55 -10 55 -8 228 -52 315 -80 381 -121
726 -343 935 -604 19 -24 40 -49 47 -55 26 -27 144 -216 191 -305 73 -142 167
-381 155 -394 -4 -3 -1 -6 6 -6 6 0 11 -6 10 -12 -1 -7 0 -20 3 -28 8 -20 36
-127 43 -165 3 -16 7 -34 9 -40 3 -12 14 -70 21 -110 2 -16 7 -41 10 -55 3
-14 7 -47 11 -75 3 -27 7 -66 10 -85 14 -119 19 -235 19 -465 -1 -304 -12
-496 -31 -527 -3 -4 0 -8 6 -8 6 0 8 -5 5 -10 -3 -6 -8 -33 -10 -61 -4 -50 -4
-50 23 -45 15 3 45 8 67 11 23 3 52 8 65 10 14 3 45 8 70 11 25 2 56 7 70 9
14 2 41 6 60 9 19 2 49 7 65 10 62 10 121 19 150 22 17 1 30 3 30 4 0 1 14 4
30 6 17 1 41 5 55 7 14 3 45 8 70 12 25 3 56 8 70 10 69 11 117 18 140 20 14
2 54 8 90 14 36 6 85 13 110 17 56 8 62 9 130 19 30 4 64 9 75 11 11 1 20 3
20 4 0 1 20 4 45 6 25 2 61 8 80 12 l35 8 0 108 c0 119 -1 117 68 130 31 6 57
17 58 25 6 38 10 98 24 321 6 116 15 247 21 340 10 138 7 231 -8 299 -8 34
-14 75 -12 90 1 14 6 67 9 116 3 50 8 110 10 135 4 44 11 137 20 270 2 36 4
70 5 75 7 35 -5 62 -46 102 -30 30 -47 56 -50 77 -2 17 -6 54 -9 81 -3 28 -8
66 -10 85 -3 19 -7 53 -10 75 -2 22 -7 63 -10 91 -3 28 -8 61 -10 75 -3 13 -7
55 -10 94 -3 38 -8 77 -10 85 -3 9 -7 38 -10 65 -13 140 -15 148 -57 204 -38
52 -146 164 -213 221 -72 62 -324 230 -344 230 -5 0 -11 3 -13 8 -1 4 -21 17
-43 29 -73 41 -398 203 -419 209 -12 4 -55 23 -96 44 -41 20 -79 37 -83 37 -7
1 -113 44 -192 78 -16 7 -57 23 -90 35 -33 12 -69 26 -80 30 -11 4 -47 18 -80
30 -33 12 -69 26 -80 30 -75 32 -632 210 -656 210 -9 0 -19 3 -23 7 -3 4 -12
8 -19 9 -25 5 -473 124 -497 133 -14 5 -74 24 -135 42 -60 19 -111 37 -113 41
-2 4 -11 8 -21 8 -16 0 -214 72 -282 103 -19 9 -70 32 -114 52 -93 43 -157 62
-203 61 -17 -1 -32 1 -32 4 0 3 -12 6 -27 6 -39 2 -144 13 -169 18 -11 2 -56
7 -100 11 -94 8 -124 11 -226 20 -103 9 -139 12 -229 19 -42 3 -99 8 -125 10
-87 9 -280 23 -404 30 -41 3 -106 7 -145 10 -38 3 -101 8 -140 11 -38 2 -104
7 -145 10 -41 3 -113 8 -160 10 -88 5 -211 12 -340 20 -41 3 -118 7 -170 10
-52 3 -126 8 -165 10 -230 14 -324 18 -800 30 -364 10 -333 6 -405 50 -89 54
-120 72 -157 92 -18 9 -33 20 -33 25 0 4 -5 8 -11 8 -6 0 -31 14 -56 30 -24
17 -47 30 -52 30 -4 0 -25 13 -47 29 -21 16 -55 37 -74 48 -78 42 -386 228
-392 238 -4 5 -8 6 -8 2 0 -4 -6 -3 -12 3 -15 12 -88 60 -92 60 -1 0 -137 81
-301 180 -164 99 -302 180 -307 180 -4 0 -8 5 -8 10 0 6 -4 10 -9 10 -5 0 -46
23 -90 50 -44 28 -85 50 -91 50 -5 0 -10 4 -10 8 0 5 -15 16 -32 25 -39 19
-21 9 -448 267 -184 111 -351 212 -370 222 -19 11 -46 28 -60 38 -14 9 -30 19
-35 21 -6 2 -43 24 -83 49 -41 25 -90 55 -110 68 -20 12 -53 31 -72 42 -46 27
-74 44 -80 50 -3 3 -18 12 -35 20 -16 8 -32 17 -35 20 -27 27 -393 230 -414
230 -3 0 -29 11 -58 24 -29 13 -78 33 -108 44 -182 66 -257 92 -275 95 -11 2
-27 7 -35 11 -8 3 -46 15 -85 27 -65 19 -85 24 -125 34 -8 2 -15 4 -15 5 0 1
-7 3 -15 5 -8 1 -53 13 -100 25 -47 12 -96 24 -109 26 -12 3 -53 12 -90 20
-36 9 -75 18 -86 20 -11 2 -42 8 -70 14 -68 14 -153 30 -242 46 -13 2 -35 6
-50 9 -34 7 -67 12 -113 19 -19 2 -51 7 -70 11 -19 3 -48 8 -65 10 -16 2 -46
6 -65 9 -19 3 -53 8 -75 10 -22 3 -80 10 -130 16 -109 14 -144 18 -213 25 -29
2 -72 7 -95 10 -23 2 -73 7 -112 10 -38 3 -90 7 -115 10 -25 2 -88 7 -140 10
-52 4 -115 9 -140 11 -46 3 -186 11 -385 20 -123 6 -1341 14 -1347 9z m-2693
-200 c33 -4 66 -8 73 -8 33 -1 -12 -16 -93 -32 -106 -20 -107 -20 -165 -34
-25 -5 -57 -12 -73 -15 -15 -2 -35 -7 -45 -10 -9 -3 -28 -7 -42 -10 -14 -2
-63 -14 -109 -26 -46 -11 -85 -19 -88 -17 -6 7 54 124 67 132 6 4 28 9 48 11
88 10 137 16 139 18 6 5 233 -2 288 -9z m4000 -49 c66 -3 169 -8 229 -11 60
-3 137 -7 170 -9 34 -3 104 -8 156 -11 52 -4 111 -9 130 -11 19 -2 73 -6 120
-9 47 -4 96 -8 110 -11 14 -2 52 -7 85 -9 56 -4 80 -7 175 -20 58 -8 113 -15
160 -20 25 -3 59 -8 75 -10 17 -3 50 -7 75 -10 25 -3 52 -7 60 -10 8 -2 38 -7
65 -10 28 -4 57 -8 65 -10 8 -3 33 -7 55 -10 22 -4 47 -8 55 -10 8 -2 37 -7
65 -11 27 -3 60 -10 73 -15 12 -5 26 -8 30 -8 4 1 9 0 12 -1 5 -2 12 -3 75
-14 17 -2 68 -14 115 -26 107 -26 107 -26 155 -35 22 -5 45 -10 50 -11 6 -2
26 -7 45 -13 19 -5 69 -19 110 -30 41 -12 82 -23 91 -25 21 -6 269 -89 344
-116 68 -25 94 -36 219 -94 l89 -42 -72 -38 -72 -38 -92 37 c-96 39 -280 104
-309 110 -9 2 -27 9 -40 16 -13 7 -25 12 -28 11 -3 -1 -23 4 -45 10 -22 7 -44
13 -50 13 -5 1 -44 11 -85 23 -118 35 -208 59 -253 68 -10 2 -26 5 -35 8 -9 3
-31 8 -49 11 -18 3 -42 9 -55 14 -13 5 -26 9 -31 9 -7 0 -87 14 -97 17 -8 2
-73 16 -95 20 -11 2 -20 4 -20 5 0 1 -13 3 -30 5 -16 2 -50 9 -75 14 -25 5
-63 13 -85 16 -22 4 -49 9 -60 11 -11 2 -63 10 -115 19 -52 8 -106 17 -120 20
-14 3 -45 7 -70 10 -25 3 -56 7 -70 10 -44 7 -124 17 -155 20 -32 3 -88 11
-145 20 -47 7 -124 15 -183 20 -26 2 -69 6 -95 9 -79 9 -165 18 -212 21 -25 2
-81 6 -125 10 -44 3 -106 8 -139 10 -32 2 -61 6 -63 9 -3 3 -14 1 -24 -5 -11
-5 -19 -6 -19 -2 0 4 -21 9 -48 9 -26 1 -99 5 -162 8 -595 29 -1259 26 -1840
-9 -58 -4 -134 -8 -170 -10 -36 -2 -90 -6 -120 -10 -30 -3 -84 -8 -120 -10
-36 -3 -81 -7 -100 -10 -19 -2 -69 -6 -110 -10 -41 -3 -86 -8 -100 -10 -14 -2
-48 -7 -76 -10 -69 -7 -131 -14 -179 -21 -22 -3 -53 -8 -70 -9 -53 -6 -129
-16 -155 -21 -14 -3 -32 -6 -40 -6 -8 0 -33 -4 -55 -8 -40 -8 -82 -15 -152
-25 -21 -3 -49 -8 -63 -11 -14 -3 -36 -7 -50 -9 -50 -7 -389 -78 -482 -101
-10 -2 -26 -6 -37 -8 -10 -2 -92 -23 -182 -46 -90 -23 -174 -44 -186 -45 -12
-2 -27 -6 -32 -10 -6 -3 -19 -8 -28 -10 -48 -11 -220 -60 -318 -92 -60 -19
-117 -36 -126 -38 -22 -4 -461 -151 -524 -175 -61 -23 -87 -32 -100 -36 -10
-2 -299 -112 -420 -159 -38 -15 -89 -36 -112 -46 -24 -10 -47 -19 -51 -19 -5
0 -22 -6 -38 -14 -16 -8 -90 -39 -164 -69 -74 -31 -152 -63 -172 -71 -21 -9
-39 -15 -40 -14 -2 1 -16 -5 -33 -14 -16 -8 -41 -20 -55 -26 -14 -6 -45 -19
-70 -30 -25 -11 -61 -27 -80 -35 -19 -8 -70 -31 -113 -51 -44 -20 -81 -36 -83
-36 -6 0 -63 -26 -184 -82 -47 -22 -89 -41 -95 -42 -5 -2 -37 -15 -70 -31
-301 -140 -455 -207 -572 -249 -95 -34 -173 -60 -198 -65 -5 -1 -26 -6 -45
-11 -19 -5 -51 -12 -70 -15 -19 -3 -48 -8 -65 -12 -16 -3 -53 -7 -82 -8 -28
-2 -55 -5 -60 -8 -5 -3 -15 -2 -22 3 -10 6 -4 13 25 27 21 11 98 50 169 88 72
38 193 100 270 139 77 39 142 74 143 79 2 4 8 7 14 7 5 0 71 30 146 66 141 69
313 150 392 186 186 85 217 99 250 112 8 3 22 10 30 15 30 18 182 81 196 81 8
0 14 4 14 9 0 5 10 11 23 14 20 4 173 66 252 101 17 7 53 22 80 31 28 10 55
22 60 26 6 4 35 16 65 26 30 11 145 54 255 95 110 42 236 88 280 103 44 15
100 35 125 45 25 10 47 18 50 18 7 1 37 11 80 27 19 7 38 13 43 13 4 0 62 19
130 41 186 61 620 188 707 206 8 2 59 15 113 30 54 15 107 28 118 31 10 2 27
6 37 8 92 22 211 49 227 51 11 2 21 4 23 4 1 1 4 1 7 2 2 0 19 5 37 10 18 5
47 12 63 14 17 3 77 15 135 26 157 31 300 55 370 64 25 3 56 7 70 10 23 4 47
8 155 20 22 3 67 7 100 10 54 4 99 8 220 20 22 2 78 7 125 10 47 4 101 8 120
10 78 8 249 19 302 19 32 1 58 3 58 6 0 3 17 5 38 6 43 1 252 12 367 20 96 6
221 11 500 20 116 3 211 7 213 9 5 4 1161 -3 1277 -9z m-495 -160 c334 -11
566 -23 780 -42 65 -6 82 -7 215 -18 73 -6 146 -14 205 -21 19 -2 60 -7 90
-10 30 -3 87 -10 125 -15 75 -10 148 -19 205 -25 19 -2 49 -6 65 -9 26 -5 78
-12 150 -22 11 -1 20 -3 20 -4 0 -1 11 -3 25 -5 31 -4 86 -13 165 -27 33 -6
69 -12 80 -13 11 -2 34 -6 50 -10 17 -3 46 -8 65 -11 19 -3 42 -8 50 -11 8 -4
18 -6 22 -5 4 1 58 -10 120 -24 62 -14 126 -28 143 -31 100 -17 428 -107 660
-181 11 -3 22 -7 25 -7 3 -1 14 -5 25 -9 11 -5 63 -24 115 -43 52 -19 113 -43
135 -53 22 -10 45 -19 50 -20 6 -1 16 -7 23 -13 8 -6 31 -20 52 -31 126 -67
185 -100 265 -146 50 -29 115 -66 145 -83 63 -35 450 -262 554 -325 37 -23 70
-42 72 -42 2 0 53 -31 115 -70 61 -38 113 -70 116 -70 2 0 24 -13 48 -30 24
-16 46 -30 50 -30 3 0 11 -5 18 -10 21 -18 299 -190 307 -190 4 0 13 -7 20
-15 7 -9 28 -23 46 -31 19 -9 34 -20 34 -25 0 -5 5 -9 10 -9 12 0 332 -209
341 -223 3 -5 10 -9 15 -9 5 -1 23 -11 40 -24 17 -13 35 -24 40 -24 5 0 16 -9
24 -20 8 -11 18 -20 22 -20 8 0 168 -107 178 -119 3 -3 12 -10 21 -16 70 -43
299 -214 299 -222 0 -4 -12 -18 -27 -31 -16 -13 -47 -41 -71 -63 -26 -25 -47
-37 -55 -33 -14 9 -120 87 -127 94 -3 3 -25 19 -50 35 -25 17 -50 35 -56 40
-7 6 -22 18 -35 27 -44 32 -174 128 -194 144 -11 8 -32 23 -47 32 -16 9 -28
20 -28 24 0 4 -6 8 -14 8 -8 0 -16 4 -18 8 -1 4 -43 37 -93 72 -79 57 -125 90
-160 118 -6 5 -24 17 -40 28 -17 10 -37 24 -45 31 -58 46 -384 275 -530 373
-36 24 -67 46 -70 50 -3 3 -30 21 -60 40 -30 19 -59 38 -65 43 -25 19 -504
317 -511 317 -1 0 -27 14 -56 31 -138 82 -362 195 -498 252 -123 51 -245 98
-261 100 -8 2 -18 5 -24 8 -5 4 -41 16 -80 28 -38 13 -77 25 -85 28 -8 3 -22
7 -31 9 -9 2 -29 9 -45 15 -16 7 -36 13 -44 15 -8 1 -33 8 -55 15 -22 6 -60
17 -85 25 -68 20 -358 93 -393 100 -17 2 -33 7 -37 9 -3 2 -17 6 -31 9 -13 2
-80 17 -148 31 -68 15 -133 28 -145 29 -11 2 -28 6 -36 9 -15 5 -45 11 -125
23 -21 3 -42 7 -45 9 -4 2 -35 9 -71 15 -35 5 -77 12 -94 15 -40 7 -143 24
-180 30 -16 3 -52 8 -80 11 -27 4 -53 8 -56 10 -14 8 -688 45 -1102 60 -170 7
-1323 7 -1488 1 -229 -9 -526 -30 -749 -52 -120 -12 -167 -17 -195 -21 -16 -1
-52 -5 -80 -8 -27 -3 -59 -8 -70 -10 -18 -5 -52 -9 -140 -21 -16 -2 -30 -4
-30 -5 0 -1 -13 -3 -30 -5 -72 -9 -254 -41 -335 -60 -14 -3 -38 -8 -55 -11
-25 -4 -253 -54 -320 -70 -11 -3 -31 -7 -45 -10 -14 -3 -59 -14 -100 -25 -41
-11 -88 -22 -105 -25 -16 -3 -38 -10 -47 -15 -10 -5 -18 -8 -18 -5 0 3 -15 0
-32 -5 -18 -6 -89 -26 -158 -45 -163 -45 -442 -132 -520 -161 -8 -3 -19 -7
-25 -8 -5 -2 -44 -15 -85 -30 -41 -14 -79 -28 -85 -29 -10 -2 -115 -40 -145
-53 -8 -3 -19 -7 -25 -9 -42 -10 -471 -182 -573 -230 -29 -13 -54 -24 -57 -24
-2 0 -57 -25 -122 -56 -65 -30 -119 -55 -121 -55 -6 2 -147 -75 -150 -81 -2
-5 -8 -8 -13 -8 -21 0 -139 -132 -135 -150 1 -3 -6 -17 -15 -30 -14 -22 -22
-45 -36 -100 -6 -26 -10 -185 -4 -195 3 -5 6 -23 7 -39 4 -46 62 -214 102
-298 22 -45 34 -79 28 -81 -6 -2 -297 -3 -646 -1 -1373 4 -2509 26 -3110 60
-69 4 -137 7 -152 7 -42 1 -33 17 10 18 84 1 194 14 342 40 145 25 156 27 290
54 14 2 36 7 50 9 48 9 85 17 130 27 25 6 56 12 70 14 14 3 36 7 50 10 14 3
40 8 59 10 18 3 37 8 42 11 5 3 17 7 28 9 10 2 63 13 117 25 55 12 107 23 117
25 10 2 28 7 40 11 12 4 103 8 202 9 99 1 191 5 205 9 14 3 41 9 60 12 19 3
49 10 65 15 32 10 146 42 155 44 3 0 30 9 60 19 48 16 81 29 185 71 11 5 22 9
25 10 18 6 73 30 134 59 121 57 206 96 310 142 56 25 115 51 131 59 152 70
185 85 189 85 3 0 35 14 73 31 116 52 123 55 308 134 177 76 691 285 710 290
6 1 21 7 35 12 14 6 95 36 180 68 85 31 164 61 175 66 49 21 165 57 165 51 0
-4 4 -2 8 3 4 6 88 36 187 68 99 32 187 61 195 64 8 3 20 7 25 8 6 2 72 22
148 44 75 23 145 44 155 46 9 3 51 14 92 26 71 20 288 77 320 84 8 2 62 15
120 29 58 15 121 29 140 32 19 3 38 8 41 10 3 2 19 6 35 8 45 9 143 29 204 42
14 3 34 7 45 8 11 2 49 9 85 16 36 7 76 14 90 15 14 2 26 4 28 5 1 1 10 3 20
4 19 2 102 15 135 22 11 2 43 6 70 9 28 3 53 7 56 9 3 2 38 7 77 10 39 4 82 9
95 11 13 3 47 7 74 10 28 3 61 7 75 10 14 2 57 7 95 11 39 3 84 8 100 9 88 9
195 19 330 29 44 3 110 8 147 11 173 14 373 24 668 31 113 3 206 7 207 7 4 4
576 -2 763 -7z m-187 -406 c3 -3 8 -28 12 -55 8 -62 11 -84 20 -137 4 -24 8
-55 11 -70 2 -16 6 -40 8 -55 3 -16 8 -48 12 -73 4 -25 8 -56 10 -70 6 -50 15
-116 19 -140 3 -14 7 -45 11 -70 3 -25 7 -52 9 -60 2 -8 7 -37 10 -65 3 -27 8
-59 10 -71 7 -30 15 -85 20 -125 4 -36 12 -91 21 -149 3 -19 7 -44 9 -55 2
-11 7 -42 11 -70 4 -27 9 -61 10 -75 1 -14 3 -25 4 -25 1 0 3 -13 5 -30 1 -16
6 -48 9 -70 18 -104 25 -154 31 -200 10 -75 14 -108 19 -130 6 -31 20 -137 21
-160 0 -18 -6 -19 -100 -16 -55 2 -149 4 -210 6 -60 2 -195 6 -300 10 -104 3
-251 8 -326 9 -75 2 -141 6 -147 10 -6 3 -13 2 -17 -4 -4 -6 -11 -8 -16 -5 -5
4 -80 8 -166 11 -218 7 -397 12 -608 19 -99 3 -238 7 -310 10 -71 2 -224 7
-340 11 -115 3 -270 7 -342 8 -73 0 -133 3 -133 6 0 3 -30 5 -67 5 -74 0 -73
0 -86 92 -3 21 -8 45 -11 53 -5 15 -14 74 -21 135 -2 17 -6 41 -10 55 -3 14
-8 41 -11 60 -5 36 -17 101 -34 193 -5 28 -12 68 -15 87 -2 19 -7 46 -9 60 -3
14 -7 41 -10 60 -3 19 -8 49 -11 65 -3 17 -7 44 -10 60 -3 17 -7 41 -10 55 -6
27 -10 52 -20 120 -4 25 -9 54 -11 65 -2 11 -7 34 -9 50 -3 17 -10 55 -15 85
-6 30 -13 74 -16 97 -3 23 -11 69 -18 103 -7 33 -10 62 -7 64 18 11 115 35
122 30 5 -3 9 0 9 7 0 7 2 10 5 7 3 -3 31 1 63 8 125 30 269 62 302 68 19 3
91 16 160 30 69 13 145 28 170 31 25 4 54 9 65 11 54 11 82 15 119 19 23 2 52
6 66 9 41 8 112 17 170 22 30 2 71 7 91 9 54 8 219 23 319 30 92 6 252 17 300
20 25 2 130 6 235 10 104 3 190 7 191 8 5 5 733 2 737 -3z m331 -3 c28 -2 29
-5 57 -113 15 -61 30 -122 33 -135 3 -13 13 -51 21 -84 9 -33 25 -94 35 -135
10 -41 37 -149 61 -240 23 -91 42 -173 43 -182 0 -10 3 -18 6 -18 4 0 7 -6 8
-12 1 -15 3 -23 31 -133 11 -44 22 -91 25 -105 2 -14 11 -46 19 -72 8 -27 13
-48 10 -48 -3 0 0 -6 6 -13 6 -8 8 -17 4 -20 -3 -4 -2 -12 3 -19 6 -7 11 -26
13 -43 2 -16 7 -37 12 -46 4 -9 11 -29 14 -45 3 -16 33 -140 68 -276 l62 -247
-160 4 c-88 2 -195 5 -238 5 -42 1 -79 5 -81 9 -4 6 -10 42 -21 121 -3 25 -8
57 -11 72 -3 15 -7 40 -10 57 -2 17 -6 43 -8 59 -2 15 -11 77 -20 137 -25 170
-26 176 -36 240 -6 33 -12 76 -15 95 -9 71 -16 117 -26 175 -5 33 -12 74 -13
90 -2 17 -6 44 -9 60 -3 17 -8 53 -12 80 -3 28 -10 75 -15 105 -5 30 -12 73
-15 95 -5 36 -16 110 -30 205 -2 19 -7 46 -9 60 -3 14 -10 61 -16 105 -6 44
-13 91 -16 105 -2 14 -6 46 -9 71 l-5 46 107 -4 c60 -2 121 -5 137 -6z m382
-18 c7 -5 15 -24 19 -42 9 -38 6 -28 32 -107 11 -36 35 -112 53 -170 18 -58
47 -152 65 -210 68 -215 94 -298 130 -415 20 -66 40 -129 44 -140 5 -11 27
-83 50 -160 23 -77 45 -147 48 -155 3 -8 7 -19 8 -25 2 -5 39 -127 85 -270 45
-143 83 -268 85 -278 4 -16 -5 -17 -138 -11 -78 3 -164 7 -191 8 -30 1 -51 7
-56 17 -8 15 -79 284 -96 366 -2 12 -9 34 -14 48 -5 14 -7 25 -5 25 2 0 0 11
-5 25 -5 14 -12 36 -14 50 -2 13 -14 57 -25 98 -11 40 -22 84 -25 98 -3 13
-13 51 -21 84 -9 33 -17 67 -20 75 -2 8 -9 35 -15 60 -6 25 -13 52 -14 60 -2
8 -9 35 -15 60 -7 25 -14 52 -16 60 -2 8 -10 42 -19 75 -9 33 -19 69 -21 80
-2 11 -16 67 -31 125 -14 58 -27 113 -27 123 -1 9 -5 17 -10 17 -5 0 -7 6 -4
14 3 8 3 17 -1 20 -3 4 -7 12 -8 19 -1 7 -12 50 -24 97 -12 47 -25 103 -30
125 -5 22 -16 63 -24 90 -27 86 -33 82 112 77 70 -2 132 -8 138 -13z m469 -14
c174 -9 286 -15 335 -20 56 -5 355 -51 400 -60 14 -4 41 -8 60 -10 19 -3 46
-8 60 -11 14 -3 48 -10 75 -15 60 -10 73 -13 195 -39 52 -11 106 -22 120 -25
14 -2 35 -7 48 -10 12 -3 30 -7 40 -9 9 -2 40 -9 67 -16 78 -17 323 -79 400
-101 148 -42 211 -61 225 -66 8 -3 20 -7 25 -8 31 -7 271 -91 330 -115 245
-102 352 -152 515 -242 109 -61 346 -202 376 -225 17 -13 36 -23 42 -23 6 0
17 -6 24 -13 7 -7 38 -28 68 -47 30 -19 57 -37 60 -41 3 -3 10 -8 16 -10 12
-4 351 -233 459 -310 39 -27 69 -54 67 -60 -1 -5 -20 -33 -42 -60 -58 -73
-117 -202 -138 -299 -20 -91 -22 -235 -4 -303 5 -20 7 -39 3 -41 -3 -2 -26 -2
-51 -1 -90 6 -276 16 -335 20 -33 2 -112 6 -175 10 -63 3 -142 8 -175 10 -33
3 -107 7 -165 10 -105 6 -132 8 -355 19 -66 3 -151 8 -190 11 -93 7 -307 19
-517 29 -36 2 -71 7 -77 10 -5 4 -12 2 -16 -4 -4 -6 -11 -7 -18 -3 -6 3 -38 7
-71 9 -59 2 -206 10 -351 19 -38 2 -119 7 -180 10 -60 3 -148 8 -195 11 -132
8 -257 14 -350 18 -47 2 -137 7 -200 11 -63 4 -125 7 -136 7 -15 -1 -25 7 -32
26 -14 37 -43 130 -46 145 -1 7 -7 26 -13 42 -12 31 -44 132 -47 150 -2 6 -15
48 -30 95 -15 47 -29 92 -31 100 -2 8 -13 44 -25 80 -12 36 -24 72 -25 80 -2
8 -13 44 -25 80 -12 36 -26 79 -30 95 -4 17 -45 147 -90 290 -45 143 -90 287
-100 321 -10 34 -23 71 -29 83 -7 11 -10 21 -7 21 3 0 -6 30 -18 68 -13 37
-23 69 -24 72 0 3 -3 12 -6 20 -8 24 -50 165 -51 170 0 3 -3 10 -6 15 -3 6 -9
18 -12 28 -7 19 5 20 378 2z m2921 -116 c128 -74 620 -374 625 -382 3 -5 9 -8
13 -8 3 1 16 -5 29 -13 62 -38 366 -221 392 -236 17 -9 90 -54 163 -98 73 -45
137 -82 143 -82 5 0 9 -3 9 -8 0 -7 22 -21 73 -44 15 -7 27 -16 27 -20 0 -4 4
-8 9 -8 5 0 38 -18 72 -39 88 -54 713 -431 758 -457 108 -63 409 -247 430
-262 13 -9 27 -17 30 -17 3 0 17 -8 31 -17 14 -9 97 -60 185 -112 l160 -96
-50 4 c-71 7 -115 13 -182 25 -32 6 -77 14 -101 17 -144 20 -208 40 -267 85
-33 24 -65 49 -71 54 -6 6 -20 16 -30 23 -11 7 -63 44 -118 83 -215 154 -533
369 -545 369 -5 0 -11 4 -13 8 -3 7 -153 109 -203 138 -11 6 -83 51 -160 101
-77 49 -162 103 -188 119 -27 16 -59 36 -73 44 -42 27 -236 144 -273 166 -20
12 -67 40 -106 64 -60 37 -124 75 -270 160 -16 10 -64 37 -105 61 -41 23 -78
48 -82 53 -4 6 -8 7 -8 2 0 -5 -6 -4 -12 2 -22 17 -489 282 -499 282 -26 0 -2
20 63 53 62 31 75 34 88 23 8 -8 33 -25 56 -37z m-7302 -234 c4 -23 9 -52 12
-65 2 -14 7 -40 10 -59 5 -39 11 -74 19 -111 3 -14 8 -38 10 -55 2 -16 7 -43
10 -60 4 -16 8 -43 10 -60 2 -16 13 -79 24 -140 23 -125 27 -154 35 -210 4
-22 8 -51 11 -65 16 -76 26 -132 40 -230 2 -14 16 -92 30 -175 14 -82 28 -163
31 -180 2 -16 7 -41 9 -55 5 -24 4 -25 -35 -22 -22 2 -41 7 -41 11 -1 3 -3 15
-4 26 -2 11 -5 33 -9 49 -3 16 -8 50 -12 75 -5 44 -10 71 -19 116 -2 11 -6 38
-10 60 -3 22 -12 78 -20 126 -24 140 -26 153 -30 184 -2 17 -4 30 -5 30 -1 0
-3 9 -5 20 -4 28 -35 215 -40 245 -3 14 -10 54 -15 90 -6 36 -13 79 -16 95 -6
32 -11 66 -18 116 -3 17 -7 42 -10 57 -9 43 -18 95 -20 122 -2 14 -6 41 -10
61 -7 34 -6 37 21 47 35 12 40 7 47 -43z m-149 -25 c3 -19 8 -42 10 -50 3 -8
7 -33 10 -55 10 -72 15 -100 20 -125 3 -14 8 -45 11 -70 3 -25 8 -54 10 -65 3
-11 7 -36 10 -55 2 -19 9 -57 14 -85 17 -88 20 -109 26 -151 2 -23 7 -53 9
-65 3 -13 10 -53 16 -89 6 -36 13 -74 15 -85 3 -19 6 -41 19 -126 3 -22 13
-77 21 -122 8 -45 17 -98 20 -118 3 -21 11 -71 18 -113 7 -42 10 -78 7 -80 -3
-2 -42 -2 -86 -1 -196 6 -549 17 -640 21 -125 4 -576 18 -940 29 -376 11 -366
10 -386 37 -20 26 -129 239 -133 260 -2 7 -6 20 -9 28 -56 146 -53 275 7 354
37 49 252 152 731 351 83 35 452 174 475 180 8 2 67 21 130 43 109 38 374 123
395 128 6 1 43 12 84 24 41 12 83 23 94 26 11 2 22 6 25 9 8 8 10 3 17 -35z
m8769 -1253 c55 -39 103 -74 106 -77 3 -3 52 -39 110 -80 159 -114 216 -163
205 -180 -4 -6 -10 -8 -14 -5 -5 2 -37 7 -72 10 -35 3 -95 8 -134 12 -38 4
-177 7 -307 7 l-238 1 0 25 c0 89 96 307 156 356 30 24 85 4 188 -69z m-14814
-55 c0 -8 -46 -9 -54 -1 -3 3 8 6 24 7 17 1 30 -1 30 -6z m-690 -17 c14 -2 36
-7 50 -10 14 -2 45 -7 70 -10 25 -3 54 -8 65 -10 11 -2 29 -4 39 -4 13 -1 -26
-33 -100 -85 l-121 -85 -33 -138 c-19 -76 -35 -147 -37 -157 -6 -36 -10 -27
-23 51 -8 43 -14 83 -16 88 -1 6 -4 24 -8 40 -12 61 -25 121 -35 152 -10 33
-10 33 46 134 28 52 22 50 103 34z m525 -60 c84 -6 231 -14 336 -19 42 -2 81
-6 87 -10 6 -3 13 -2 17 4 4 6 11 8 16 4 6 -3 63 -8 127 -10 64 -2 171 -6 237
-9 116 -5 346 -11 715 -20 427 -10 1154 -17 1864 -19 l768 -2 42 -60 c80 -116
63 -106 167 -108 l92 -2 22 -34 c12 -19 57 -88 99 -153 42 -65 76 -122 76
-127 0 -4 3 -10 8 -12 4 -1 40 -53 80 -115 67 -103 86 -143 62 -128 -9 5 -80
9 -470 20 -228 7 -433 13 -645 20 -188 6 -384 11 -695 21 -102 3 -254 6 -337
7 -84 1 -153 5 -153 9 0 4 -11 3 -24 -2 -13 -5 -26 -7 -29 -4 -2 3 -101 7
-218 10 -118 2 -286 6 -374 9 -203 5 -962 22 -1115 24 -43 1 -47 3 -58 34 -24
67 -136 149 -280 205 -77 30 -113 43 -122 44 -3 0 -16 5 -30 10 -14 6 -34 11
-45 13 -11 2 -27 6 -35 8 -46 12 -68 17 -90 21 -14 2 -59 11 -100 19 -41 9
-95 18 -120 21 -25 4 -56 8 -70 10 -26 5 -101 13 -185 21 -91 9 -94 11 -85 48
12 54 19 62 155 158 72 51 131 95 133 99 3 8 19 7 177 -5z m15015 -260 c74 -3
151 -8 170 -9 58 -6 174 -18 195 -21 11 -2 31 -4 45 -4 18 -1 31 -11 44 -33
28 -49 94 -110 157 -146 67 -38 129 -96 129 -121 0 -10 -9 -26 -20 -36 -11
-10 -20 -15 -20 -10 0 4 -6 2 -14 -4 -17 -14 -106 -25 -216 -25 l-85 -1 0 100
0 99 -30 2 c-16 1 -82 5 -145 8 -63 3 -146 8 -185 11 -38 2 -117 7 -175 10
-161 9 -201 12 -205 17 -7 6 -31 121 -29 136 1 6 2 16 3 21 0 5 49 9 108 10
59 1 109 3 111 6 2 2 9 2 15 0 7 -2 73 -7 147 -10z m-9920 -10 c85 -3 214 -7
285 -10 430 -14 793 -26 1270 -40 114 -3 376 -12 620 -20 77 -3 226 -8 330
-11 105 -3 255 -7 335 -10 80 -2 208 -6 285 -8 77 -2 223 -7 325 -10 102 -4
253 -9 335 -11 83 -3 222 -8 310 -11 88 -3 225 -7 305 -9 80 -2 242 -7 360
-10 118 -3 271 -8 340 -10 69 -2 162 -4 207 -5 l82 -3 20 -58 c11 -33 17 -59
13 -60 -20 -3 -143 2 -407 17 -44 3 -125 7 -180 9 -207 9 -323 15 -410 19
-161 9 -385 21 -625 32 -69 3 -154 7 -190 9 -140 7 -377 17 -422 19 -27 0 -48
3 -48 6 0 3 -42 5 -93 6 -50 0 -157 3 -237 7 -296 15 -397 20 -472 21 -43 0
-78 3 -78 6 0 3 -46 5 -103 6 -56 1 -156 4 -222 8 -66 3 -167 9 -225 11 -58 3
-152 8 -210 10 -58 3 -127 7 -153 8 -50 2 -65 -8 -61 -43 1 -8 2 -21 3 -27 0
-7 11 -12 24 -12 21 2 210 -7 382 -16 44 -2 141 -7 215 -10 74 -3 171 -8 215
-10 44 -2 141 -7 215 -10 74 -3 173 -8 220 -10 110 -6 304 -16 405 -20 44 -2
130 -6 190 -9 61 -3 160 -8 220 -11 170 -8 290 -14 410 -20 61 -3 153 -8 205
-10 52 -2 145 -7 205 -10 61 -3 160 -8 220 -10 61 -3 148 -7 195 -10 157 -9
579 -30 773 -39 45 -2 72 -8 77 -17 10 -16 134 -385 160 -475 l18 -61 -27 3
c-14 2 -82 6 -151 9 -69 3 -150 8 -180 10 -30 2 -102 7 -160 10 -192 11 -422
25 -635 39 -38 3 -113 8 -165 11 -52 4 -117 8 -145 10 -27 2 -95 7 -150 10
-149 10 -191 13 -287 19 -49 3 -126 9 -173 12 -47 3 -114 7 -148 10 -34 3 -87
7 -117 8 -73 5 -234 16 -290 21 -25 2 -85 6 -135 10 -49 3 -117 8 -150 10 -33
3 -91 7 -130 10 -38 3 -104 8 -145 11 -41 3 -104 7 -140 9 -36 2 -65 4 -65 5
0 1 -31 3 -70 5 -66 3 -149 9 -275 20 -30 3 -94 7 -142 11 -132 9 -140 10
-150 28 -13 23 -41 36 -101 46 -29 5 -63 12 -77 15 -14 3 -45 8 -70 12 -26 3
-49 12 -54 22 -32 54 -123 119 -216 152 -57 21 -83 24 -215 24 -82 0 -170 -4
-195 -8 -53 -10 -135 -44 -150 -63 -6 -7 -17 -11 -24 -8 -25 9 -250 11 -287 2
-47 -12 -95 -54 -104 -91 l-7 -28 -134 4 c-74 2 -136 6 -138 8 -19 23 -166
251 -166 258 0 5 -4 11 -8 13 -5 2 -37 48 -72 103 -34 55 -73 116 -86 136 -13
19 -24 38 -24 42 0 7 100 6 520 -8z m11295 -4 c28 -6 61 -13 75 -16 14 -3 43
-7 65 -9 22 -3 47 -7 55 -10 8 -3 33 -7 55 -10 146 -16 221 -31 240 -49 11
-10 52 -44 90 -75 39 -31 72 -59 75 -62 18 -20 235 -166 300 -203 155 -87 374
-183 400 -175 3 1 14 -4 26 -10 31 -17 95 -29 194 -37 36 -3 75 -7 87 -9 12
-3 53 -8 90 -11 37 -4 76 -9 85 -10 9 -2 48 -7 85 -10 37 -4 84 -8 103 -10 19
-3 60 -7 90 -10 30 -3 71 -8 90 -11 47 -7 116 -15 165 -19 22 -2 40 -4 40 -5
0 -1 20 -3 45 -5 25 -2 68 -6 95 -10 28 -3 68 -8 90 -10 22 -2 60 -7 85 -10
93 -13 138 -18 255 -29 28 -3 64 -7 80 -10 26 -4 79 -10 185 -21 14 -2 43 -5
65 -9 22 -3 65 -8 95 -10 54 -5 87 -9 180 -21 25 -3 65 -8 90 -11 25 -2 56 -6
70 -9 22 -3 58 -8 170 -21 14 -1 52 -5 85 -9 33 -3 71 -8 85 -10 33 -5 251
-33 315 -40 61 -6 86 -10 195 -25 47 -7 99 -14 115 -15 67 -7 131 -15 150 -19
12 -2 48 -7 80 -11 33 -4 67 -9 77 -11 9 -1 38 -5 65 -9 26 -4 59 -9 73 -11
14 -2 43 -6 65 -9 22 -3 47 -7 55 -9 8 -1 38 -6 65 -10 28 -4 84 -14 125 -23
41 -8 84 -16 95 -18 40 -5 219 -46 397 -91 101 -25 194 -48 208 -51 14 -2 32
-7 40 -10 8 -3 24 -8 35 -10 11 -2 31 -8 45 -13 14 -5 34 -11 45 -13 11 -2 27
-7 35 -10 12 -4 41 -12 80 -22 3 0 37 -11 75 -24 39 -13 75 -24 80 -26 6 -1
17 -5 25 -8 8 -4 54 -20 101 -36 47 -17 116 -43 153 -59 l68 -29 -169 1 c-159
0 -284 -6 -363 -19 -42 -7 -187 -33 -215 -39 -11 -2 -33 -9 -48 -15 -15 -6
-47 -13 -70 -16 -157 -19 -298 -44 -442 -78 -33 -8 -67 -11 -75 -6 -47 24
-167 70 -187 71 -7 1 -13 6 -13 11 0 6 -3 7 -7 4 -3 -4 -12 -2 -20 4 -7 6 -13
9 -13 5 0 -3 -24 3 -52 14 -29 11 -62 21 -73 23 -11 2 -27 7 -35 10 -14 5
-140 34 -187 43 -13 2 -35 6 -50 9 -16 3 -50 8 -78 11 -27 3 -53 8 -58 11 -27
16 -497 24 -617 10 -251 -30 -516 -93 -655 -157 -11 -5 -63 -28 -115 -52 -52
-24 -136 -67 -187 -96 -73 -42 -104 -54 -150 -59 -76 -7 -356 -11 -367 -5 -4
3 -25 6 -45 8 -82 8 -121 18 -186 48 -42 19 -62 36 -90 80 -53 79 -153 127
-295 141 -30 3 -75 7 -100 10 -25 3 -72 8 -105 10 -33 3 -73 7 -90 9 -16 2
-66 7 -110 10 -44 4 -91 8 -105 11 -14 2 -61 7 -105 10 -44 3 -98 8 -120 10
-22 2 -66 7 -97 10 -32 3 -82 7 -110 10 -29 3 -73 7 -98 9 -100 9 -185 18
-189 22 -3 3 -6 12 -7 22 -8 72 -48 222 -76 290 -6 15 -12 29 -12 32 -1 3 -19
41 -40 85 -42 85 -92 164 -163 258 l-44 57 58 -5 c67 -6 186 -14 293 -20 41
-2 107 -7 145 -10 39 -3 99 -8 135 -10 86 -6 203 -15 265 -21 28 -2 88 -7 135
-9 47 -3 105 -7 130 -9 25 -3 83 -7 130 -11 47 -3 108 -8 135 -10 28 -3 79 -8
115 -11 36 -3 88 -7 115 -9 28 -2 77 -7 110 -10 62 -7 112 -11 205 -18 78 -7
191 -18 220 -22 14 -2 57 -7 95 -11 39 -4 81 -8 95 -9 14 -2 52 -6 84 -10 33
-3 63 -8 66 -10 19 -12 46 49 32 71 -4 7 -38 15 -77 19 -38 3 -81 8 -95 10
-14 1 -54 5 -90 9 -36 3 -76 8 -90 10 -30 6 -145 17 -215 21 -46 3 -79 6 -205
19 -25 3 -75 7 -112 10 -38 3 -96 8 -130 12 -90 7 -162 13 -248 19 -41 2 -104
7 -138 10 -174 15 -247 21 -387 30 -49 3 -115 8 -145 11 -56 5 -102 8 -270 19
-52 3 -113 8 -135 10 -22 3 -87 7 -145 10 -58 3 -114 7 -125 10 -11 2 -25 4
-30 4 -6 1 -35 24 -65 52 -80 74 -211 170 -307 226 -46 26 -105 65 -131 86
-64 51 -59 48 -132 97 -35 25 -68 48 -74 51 -5 4 24 39 65 78 82 79 77 78 204
52z m-815 -33 c0 -5 6 -8 14 -8 8 0 16 -3 18 -8 2 -4 28 -25 58 -47 30 -22 60
-43 65 -48 42 -35 384 -277 391 -277 3 0 11 -6 19 -12 45 -44 61 -51 109 -51
46 0 53 3 85 40 41 46 25 50 156 -35 79 -51 195 -142 195 -153 0 -4 -17 -5
-37 -3 -21 2 -76 6 -123 9 -47 2 -114 7 -150 10 -36 3 -108 8 -160 10 -52 3
-124 8 -160 10 -36 3 -108 7 -160 10 -52 2 -126 7 -165 10 -38 3 -106 7 -150
10 -44 3 -114 7 -155 10 -41 3 -122 8 -180 11 -58 3 -134 8 -170 10 -36 2
-105 6 -155 9 -49 2 -126 6 -170 9 -201 13 -306 19 -515 31 -170 9 -269 15
-370 21 -52 3 -131 7 -175 9 -44 3 -116 7 -160 9 -44 3 -125 8 -180 11 -55 3
-145 8 -200 11 -55 3 -134 7 -175 9 -41 2 -122 6 -180 10 -58 3 -139 7 -180
10 -41 2 -122 6 -180 10 -118 6 -268 14 -380 20 -189 9 -310 15 -384 20 -45 3
-133 7 -196 11 -63 3 -149 7 -190 9 -130 8 -292 16 -386 20 -152 6 -276 15
-285 20 -7 5 -39 103 -39 120 0 3 4 4 8 1 5 -3 65 -8 133 -11 68 -2 158 -7
199 -10 115 -7 305 -17 410 -20 52 -2 95 -4 95 -5 0 -1 34 -3 75 -5 180 -9
291 -15 375 -20 178 -11 232 -14 355 -20 69 -3 154 -8 190 -10 36 -2 112 -7
170 -10 58 -3 141 -8 185 -11 44 -3 114 -7 155 -9 80 -3 260 -13 375 -20 39
-3 113 -7 165 -10 169 -9 243 -14 340 -20 128 -8 248 -15 350 -20 107 -5 227
-12 350 -19 52 -4 136 -9 185 -11 88 -6 125 -10 175 -20 14 -2 48 -9 75 -15
28 -5 66 -12 85 -14 19 -3 51 -7 70 -11 122 -19 458 -26 554 -10 67 11 109 27
147 57 63 51 41 160 -46 223 -15 11 -32 25 -39 30 -6 6 -28 19 -49 30 -43 22
-101 74 -117 106 -10 18 -10 19 9 7 12 -7 21 -16 21 -20z m1736 -63 c357 -7
579 -14 849 -30 33 -2 107 -6 165 -9 58 -3 139 -8 180 -10 41 -3 122 -7 180
-11 58 -3 132 -7 165 -10 33 -3 94 -7 135 -10 88 -6 207 -14 305 -20 39 -3 99
-7 135 -10 117 -8 214 -15 285 -21 39 -3 99 -8 135 -10 36 -3 83 -7 105 -9 22
-2 76 -6 120 -9 44 -3 98 -7 120 -10 22 -3 72 -7 110 -11 39 -3 90 -8 115 -11
25 -3 68 -7 95 -10 28 -2 66 -6 85 -9 19 -3 62 -7 95 -10 93 -9 86 -6 280 -95
91 -42 325 -127 480 -176 147 -46 181 -55 259 -75 52 -13 83 -32 41 -25 -16 3
-43 8 -60 11 -16 3 -39 7 -50 9 -11 2 -42 7 -70 10 -27 4 -57 9 -65 11 -8 2
-37 7 -65 10 -27 3 -66 8 -85 12 -19 3 -44 7 -55 8 -20 2 -98 13 -145 21 -14
2 -50 7 -80 9 -30 3 -66 8 -80 11 -14 3 -43 8 -65 10 -22 2 -53 5 -70 8 -102
14 -125 17 -170 22 -27 3 -61 6 -75 8 -14 2 -52 7 -85 10 -33 4 -71 9 -85 11
-14 2 -52 6 -85 10 -33 3 -71 8 -85 10 -14 2 -56 6 -93 10 -37 3 -76 8 -85 10
-9 1 -53 6 -97 9 -44 4 -91 9 -105 11 -14 2 -52 7 -85 10 -225 22 -241 23
-315 29 -36 3 -78 8 -95 10 -16 3 -66 8 -110 12 -44 3 -93 8 -110 10 -28 3
-75 7 -225 19 -36 3 -83 8 -105 10 -22 3 -71 7 -110 10 -146 11 -201 16 -241
20 -23 3 -77 7 -120 10 -44 3 -106 7 -139 10 -33 2 -91 7 -130 10 -38 3 -92 7
-120 9 -69 6 -206 16 -290 21 -38 3 -109 7 -156 10 l-87 6 -4 -30 c-8 -53 -17
-50 217 -66 195 -13 235 -16 295 -21 36 -3 92 -7 125 -9 56 -3 155 -10 270
-20 28 -3 86 -7 130 -11 44 -3 94 -7 110 -9 17 -2 64 -6 105 -9 76 -6 143 -12
248 -21 31 -3 80 -7 107 -10 28 -2 73 -7 101 -10 28 -2 82 -7 120 -10 38 -3
79 -7 91 -9 13 -3 60 -7 105 -11 46 -3 94 -7 108 -9 14 -3 60 -7 102 -11 42
-3 87 -8 99 -10 13 -3 55 -7 93 -10 39 -3 85 -7 101 -9 17 -2 57 -7 90 -10
122 -13 151 -16 185 -21 42 -5 122 -15 170 -19 102 -11 185 -22 185 -26 0 0
25 -3 55 -5 30 -2 73 -7 95 -10 49 -7 264 -34 325 -41 25 -3 52 -7 60 -10 8
-2 38 -6 65 -10 28 -3 61 -7 75 -9 14 -2 45 -6 70 -9 45 -6 77 -11 135 -21 17
-3 46 -8 65 -10 19 -3 44 -7 55 -10 11 -2 47 -7 80 -11 33 -3 63 -8 66 -10 4
-2 24 -6 45 -10 22 -3 50 -7 64 -10 14 -2 41 -7 60 -10 19 -3 105 -19 190 -36
85 -17 166 -32 180 -34 27 -3 62 -10 88 -18 9 -3 28 -7 42 -10 14 -2 45 -9 70
-15 25 -7 54 -13 65 -16 35 -6 58 -12 120 -31 33 -10 62 -19 65 -19 3 -1 16
-6 30 -12 14 -6 57 -22 96 -36 74 -26 305 -118 359 -142 17 -7 84 -37 150 -65
373 -162 716 -368 893 -536 53 -50 63 -64 47 -65 -55 -3 -95 6 -155 36 -36 18
-101 47 -145 65 -44 17 -89 36 -100 40 -61 26 -261 80 -355 96 -25 4 -48 9
-52 10 -5 1 -13 2 -18 3 -6 0 -10 8 -8 17 2 11 -23 29 -82 60 -193 100 -476
193 -1000 330 -62 16 -356 84 -390 90 -14 3 -59 12 -100 20 -41 8 -91 17 -110
20 -19 2 -46 6 -60 9 -14 3 -43 7 -65 10 -22 3 -56 8 -75 11 -50 9 -69 11
-123 19 -27 4 -59 9 -70 11 -12 2 -40 6 -62 8 -22 2 -58 7 -80 10 -22 3 -58 8
-80 10 -41 5 -86 12 -152 22 -21 3 -56 7 -78 9 -41 4 -92 10 -155 19 -19 3
-57 8 -85 11 -27 3 -61 7 -75 10 -14 2 -45 6 -70 9 -25 3 -70 8 -100 12 -30 3
-66 7 -80 9 -14 2 -45 6 -70 9 -108 15 -301 37 -355 41 -22 2 -53 6 -70 9 -16
3 -57 8 -90 11 -33 3 -71 8 -85 10 -40 6 -100 14 -167 21 -35 3 -75 8 -90 10
-16 2 -46 6 -68 8 -127 13 -169 18 -188 22 -12 2 -51 7 -87 10 -36 3 -76 8
-90 9 -24 4 -66 8 -180 21 -30 3 -71 8 -90 10 -19 3 -53 7 -75 9 -22 2 -67 7
-100 11 -33 4 -71 8 -85 9 -14 2 -59 6 -100 10 -41 3 -84 9 -94 12 -11 3 -44
7 -75 10 -68 5 -119 10 -191 18 -56 7 -71 9 -151 20 -200 26 -570 213 -809
408 -8 7 -30 23 -48 35 -18 13 -30 28 -26 33 3 5 9 7 14 4 4 -3 133 -7 286
-10z m-17683 -8 c4 2 10 -4 13 -14 6 -18 11 -30 46 -91 53 -96 73 -315 40
-462 -31 -142 -141 -426 -172 -445 -6 -3 -10 -15 -10 -26 0 -19 -4 -20 -57
-13 -32 3 -64 7 -71 7 -13 0 -13 7 3 132 17 134 22 355 11 523 -2 46 -1 93 4
105 5 12 21 76 36 142 36 160 32 153 96 145 29 -4 56 -6 61 -3z m237 -32 c19
-2 35 -4 35 -5 0 -2 25 -7 75 -15 25 -3 86 -16 135 -27 50 -12 96 -21 103 -21
6 0 12 -4 12 -9 0 -4 9 -8 20 -8 10 0 45 -9 77 -21 138 -50 256 -117 287 -164
l15 -22 -395 2 c-216 1 -396 3 -398 6 -2 2 -6 18 -9 34 -14 80 -32 142 -55
194 -15 31 -28 60 -30 65 -3 4 17 5 44 1 27 -4 65 -8 84 -10z m11010 -250 c69
-3 166 -8 215 -10 50 -3 133 -8 185 -11 52 -3 140 -7 195 -10 355 -18 500 -25
560 -29 33 -2 114 -7 180 -10 66 -3 154 -7 195 -10 72 -5 217 -13 365 -20 126
-6 298 -15 380 -20 44 -3 130 -7 190 -10 151 -8 203 -13 217 -21 7 -5 8 -3 3
6 -5 8 -4 11 2 7 6 -4 60 -9 121 -12 60 -2 140 -7 178 -10 38 -2 112 -7 164
-10 52 -3 140 -8 195 -11 55 -4 135 -7 177 -8 43 0 78 -3 78 -6 0 -3 26 -6 58
-6 54 -1 239 -11 367 -19 33 -2 101 -6 150 -9 50 -3 131 -8 180 -11 50 -3 126
-7 170 -10 44 -3 118 -7 165 -10 47 -3 119 -8 160 -10 71 -4 130 -8 315 -21
44 -3 116 -7 160 -10 44 -2 112 -6 150 -8 39 -3 106 -7 150 -10 44 -3 125 -8
180 -11 l100 -6 43 -47 c75 -82 82 -90 82 -100 0 -6 4 -12 8 -14 31 -12 181
-294 196 -367 2 -9 5 -23 8 -31 13 -38 27 -88 32 -115 17 -82 22 -75 -52 -69
-37 2 -87 7 -112 9 -25 3 -74 7 -110 10 -36 4 -81 8 -100 10 -19 2 -69 7 -110
10 -41 3 -95 8 -120 10 -25 3 -74 7 -110 10 -36 3 -78 7 -95 9 -16 3 -66 7
-110 11 -44 4 -100 9 -125 11 -25 3 -70 7 -100 9 -30 2 -80 7 -110 10 -121 12
-157 15 -205 19 -27 3 -77 7 -110 11 -33 3 -89 8 -125 11 -36 3 -81 7 -100 9
-19 2 -64 6 -100 9 -36 3 -87 7 -115 10 -27 3 -81 8 -120 11 -38 4 -90 9 -115
11 -49 5 -118 11 -220 18 -36 3 -86 8 -112 11 -63 7 -128 13 -208 20 -36 3
-85 7 -110 10 -42 4 -86 8 -235 20 -33 2 -85 7 -115 11 -30 3 -75 7 -100 9
-25 3 -74 7 -110 11 -36 3 -81 7 -100 9 -19 1 -66 6 -105 9 -38 4 -97 9 -130
11 -33 3 -80 7 -105 10 -43 5 -100 10 -220 20 -30 2 -73 6 -95 9 -22 2 -76 7
-120 11 -44 3 -91 8 -105 10 -14 2 -65 7 -115 11 -49 4 -98 8 -107 10 -10 1
-29 2 -43 3 -15 0 -25 7 -25 15 0 31 -63 63 -160 81 -52 10 -105 19 -116 20
-12 2 -48 30 -80 62 -60 60 -141 107 -205 118 -19 3 -50 10 -70 14 -60 14
-261 5 -351 -14 -34 -8 -105 -42 -112 -54 -4 -5 -18 -8 -34 -5 -61 8 -257 4
-291 -7 -40 -13 -91 -64 -91 -91 0 -15 -9 -18 -49 -18 l-50 0 -15 58 c-9 31
-47 153 -86 269 -38 117 -70 214 -70 217 0 2 24 3 53 1 28 -2 108 -6 177 -10z
m-4770 -57 c62 -11 161 -57 168 -77 3 -9 0 -11 -7 -6 -7 4 -27 9 -44 11 -18 3
-54 9 -82 14 -27 5 -72 12 -100 15 -27 3 -59 8 -71 10 -11 3 -47 7 -80 11
-114 12 -119 14 -79 23 47 11 234 11 295 -1z m-5571 -67 l73 -1 -28 -37 c-49
-65 -197 -204 -270 -254 -26 -17 -185 -135 -199 -147 -6 -5 -24 -17 -40 -28
-17 -10 -32 -21 -35 -24 -13 -13 -125 -72 -201 -104 -43 -18 -161 -47 -168
-41 -2 3 -10 0 -18 -6 -21 -18 -16 1 23 79 34 70 55 118 59 135 2 4 4 9 5 12
1 3 3 8 4 13 1 4 4 12 7 17 9 15 52 156 54 180 1 11 3 20 5 20 2 0 6 27 14
105 4 36 9 70 11 75 2 10 245 11 704 6z m5066 -6 c50 -3 104 -8 120 -10 17 -2
55 -6 85 -9 30 -3 66 -8 80 -11 14 -2 45 -7 70 -10 25 -3 56 -8 70 -10 14 -3
43 -7 65 -10 22 -2 49 -6 60 -9 17 -3 83 -13 135 -21 8 -2 31 -5 50 -9 19 -4
62 -11 95 -17 60 -10 83 -14 120 -22 11 -2 36 -7 56 -11 31 -5 36 -10 32 -27
-5 -19 -11 -19 -382 -14 -350 6 -596 12 -596 15 0 0 -71 3 -157 5 -86 2 -166
6 -176 10 -38 12 -61 114 -32 140 36 33 95 37 305 20z m-4238 -9 c117 -2 216
-7 222 -10 5 -4 12 -2 16 4 4 6 11 7 17 4 5 -4 96 -8 201 -10 260 -4 860 -20
1137 -29 69 -2 231 -7 360 -10 129 -3 291 -8 360 -10 69 -3 222 -7 340 -10
118 -4 269 -8 335 -11 262 -9 364 -12 447 -13 l87 -1 40 -57 c22 -32 44 -62
48 -68 5 -5 22 -30 38 -55 47 -70 284 -410 319 -457 17 -23 64 -86 105 -141
40 -56 82 -110 92 -121 10 -11 19 -24 19 -28 0 -4 13 -22 28 -39 39 -46 66
-78 77 -96 12 -20 137 -181 144 -188 4 -3 34 -42 69 -87 34 -46 90 -119 125
-164 34 -44 67 -88 72 -97 6 -9 12 -19 15 -22 19 -19 70 -91 70 -99 0 -5 4
-11 10 -13 5 -1 41 -48 79 -103 118 -169 251 -365 251 -369 0 -2 24 -41 54
-85 30 -45 52 -81 49 -81 -3 0 1 -8 9 -17 35 -40 212 -356 304 -543 31 -63 67
-136 80 -162 l24 -47 -180 2 c-170 2 -181 3 -187 22 -4 11 -6 23 -5 28 4 13
-48 258 -78 373 -83 311 -216 599 -388 844 -25 36 -49 67 -52 70 -3 3 -13 15
-21 27 -59 87 -342 373 -369 373 -4 0 -10 3 -12 8 -10 22 -204 148 -330 215
-79 41 -263 115 -363 146 -38 12 -83 26 -100 31 -30 9 -158 37 -205 45 -14 2
-34 6 -45 8 -11 3 -42 8 -70 11 -27 4 -66 9 -85 12 -174 24 -509 24 -743 -1
-185 -20 -494 -122 -717 -238 -106 -55 -289 -173 -364 -235 -27 -23 -53 -39
-58 -36 -4 3 -17 7 -28 10 -27 6 -44 10 -125 34 -38 12 -77 23 -85 25 -8 2
-16 4 -17 4 -2 1 -4 1 -5 1 -2 0 -48 14 -103 31 -55 17 -109 32 -120 35 -11 2
-51 13 -90 25 -38 11 -77 22 -85 24 -8 2 -17 4 -20 5 -3 1 -9 3 -15 4 -5 1
-17 5 -25 8 -8 3 -33 11 -55 17 -22 6 -62 17 -90 25 -122 36 -193 56 -235 67
-62 17 -53 14 -175 49 -60 17 -114 32 -120 34 -5 2 -13 4 -17 5 -4 1 -22 7
-40 12 -53 17 -131 39 -150 44 -21 5 -452 126 -553 156 -307 90 -440 159 -513
268 -15 23 -15 25 2 35 245 145 612 441 685 554 17 26 35 52 40 59 8 8 70 10
233 7 123 -2 318 -6 435 -8z m3854 -138 c20 -49 58 -87 92 -93 18 -3 88 -7
156 -9 116 -4 125 -5 145 -28 46 -52 165 -109 261 -124 64 -10 176 -11 225 -2
25 5 57 11 72 13 15 3 40 10 55 16 15 6 28 9 28 8 0 -1 22 8 49 19 27 12 50
22 52 22 3 0 22 11 43 24 34 22 52 25 140 27 103 2 138 12 174 50 10 11 21 17
25 15 8 -5 122 -15 237 -21 33 -2 92 -6 130 -9 65 -6 139 -11 290 -21 76 -5
212 -15 290 -21 33 -3 89 -7 125 -9 36 -3 99 -7 140 -9 41 -3 105 -8 141 -11
36 -3 104 -7 150 -10 46 -3 113 -8 149 -11 36 -3 92 -8 125 -9 33 -2 94 -6
135 -9 41 -3 114 -8 162 -11 48 -3 115 -8 150 -10 35 -2 99 -7 143 -10 44 -3
108 -8 141 -10 92 -7 253 -17 307 -18 26 -1 47 -4 47 -7 0 -3 39 -6 88 -6 48
-1 132 -5 187 -9 159 -11 193 -14 320 -20 66 -4 140 -8 165 -10 49 -4 301 -17
362 -19 35 -1 43 -7 39 -29 -1 -4 5 -38 14 -75 18 -84 33 -173 39 -232 3 -25
7 -58 10 -75 2 -16 7 -65 11 -107 3 -42 8 -87 10 -100 5 -24 13 -165 22 -368
12 -274 5 -937 -12 -1190 -2 -30 -6 -102 -9 -160 -3 -58 -8 -139 -11 -180 -3
-41 -8 -102 -10 -135 -2 -33 -4 -60 -5 -60 0 0 -3 -40 -6 -90 -8 -141 -1 -130
-75 -128 -65 1 -208 7 -424 18 -195 10 -302 14 -445 20 -74 3 -180 7 -235 10
-55 3 -149 8 -210 10 -60 2 -164 7 -230 9 -152 6 -347 15 -450 21 -70 4 -248
12 -451 19 -33 2 -66 6 -72 10 -7 4 -12 2 -12 -4 0 -6 -4 -8 -10 -5 -5 3 -60
8 -122 10 -140 5 -359 15 -458 20 -41 2 -140 7 -220 11 -226 10 -284 13 -295
13 -6 1 -16 16 -24 34 -19 44 -193 394 -218 437 -11 19 -35 62 -53 95 -55 100
-164 280 -172 283 -5 2 -8 8 -8 14 0 5 -27 50 -60 99 -33 49 -60 93 -60 99 0
5 -4 10 -9 10 -5 0 -13 9 -16 20 -3 11 -12 26 -18 32 -7 7 -32 42 -56 78 -25
36 -97 136 -160 224 -64 87 -120 166 -126 175 -5 9 -16 20 -22 24 -7 4 -13 14
-13 22 0 7 -4 15 -8 17 -5 2 -56 64 -113 139 -209 274 -333 434 -343 445 -17
18 -240 321 -306 416 -142 202 -312 450 -316 461 -3 9 23 11 100 9 l104 -3 13
-31z m16589 -28 c0 -5 -2 -10 -4 -10 -3 0 -8 5 -11 10 -3 6 -1 10 4 10 6 0 11
-4 11 -10z m-15758 -92 c126 -2 197 -7 195 -13 -7 -20 -151 -46 -255 -47 -80
0 -118 5 -172 22 -97 31 -107 47 -27 44 34 -2 151 -4 259 -6z m5795 -41 c35
-9 81 -28 103 -42 40 -25 52 -38 28 -30 -18 6 -87 17 -128 20 -19 2 -35 4 -35
5 0 2 -26 7 -80 14 -27 3 -61 8 -75 10 -44 8 -124 18 -142 18 -10 -1 -21 4
-24 10 -4 6 -3 9 2 6 5 -3 29 -2 54 1 75 11 231 5 297 -12z m-646 -74 c4 -77
5 -140 2 -149 -5 -15 -158 -11 -177 5 -26 22 -39 77 -26 115 13 41 20 43 123
45 67 1 77 -1 78 -16z m194 1 c39 -3 79 -7 90 -8 11 -2 47 -6 80 -10 33 -4 71
-10 85 -13 14 -2 43 -6 65 -8 22 -2 65 -8 95 -14 30 -5 71 -12 90 -15 121 -18
127 -19 300 -51 79 -14 146 -28 149 -30 12 -13 -13 -35 -41 -36 -152 -5 -684
6 -1004 20 -20 1 -21 6 -21 90 0 85 1 89 21 85 12 -2 53 -7 91 -10z m-477
-116 c7 -7 12 -20 12 -30 0 -10 5 -18 12 -18 6 0 8 -3 5 -6 -8 -9 53 -63 73
-65 24 -2 130 -7 207 -9 69 -3 75 -5 111 -40 80 -76 191 -112 347 -115 145 -2
256 23 380 87 76 39 85 41 183 44 84 2 110 7 140 24 28 17 46 20 86 16 28 -3
77 -8 109 -11 31 -3 83 -8 115 -11 31 -3 82 -7 112 -10 79 -5 167 -13 225 -19
103 -10 160 -16 224 -21 36 -2 89 -7 116 -10 28 -3 73 -7 100 -9 88 -8 169
-16 210 -20 22 -3 76 -8 120 -11 44 -3 96 -7 115 -9 19 -2 64 -6 100 -9 70 -5
164 -14 220 -21 19 -2 67 -7 105 -10 39 -3 88 -8 110 -10 22 -2 76 -7 120 -10
44 -4 98 -8 120 -11 22 -2 63 -6 90 -9 52 -4 149 -13 225 -20 25 -2 74 -7 110
-10 36 -3 85 -7 109 -9 24 -3 74 -7 110 -11 36 -3 89 -8 116 -10 28 -3 75 -7
105 -10 30 -3 82 -7 115 -10 33 -3 78 -7 100 -10 22 -2 81 -7 130 -11 50 -3
92 -7 95 -9 3 -2 50 -6 105 -10 55 -4 107 -9 116 -10 9 -2 56 -6 105 -10 49
-4 105 -9 124 -11 19 -3 55 -6 80 -8 25 -2 79 -7 120 -10 41 -4 92 -9 113 -11
20 -3 65 -7 100 -10 34 -2 84 -7 110 -10 26 -2 80 -7 120 -10 40 -3 77 -11 82
-16 6 -6 10 -165 9 -437 0 -365 -4 -537 -19 -782 -1 -25 -6 -97 -9 -160 -4
-63 -9 -133 -11 -155 -7 -93 -18 -233 -21 -275 -2 -25 -5 -67 -8 -95 -3 -27
-8 -84 -11 -125 -6 -78 -10 -126 -19 -195 -8 -56 -14 -110 -21 -180 -12 -108
-26 -207 -31 -216 -1 -3 -22 -4 -46 -3 -24 1 -128 6 -233 9 -104 4 -219 8
-255 10 -36 2 -144 6 -240 10 -96 3 -224 8 -285 11 -60 2 -166 6 -235 9 -122
4 -216 8 -505 20 -257 11 -369 15 -485 20 -63 2 -115 4 -115 5 0 0 -52 3 -115
5 -181 6 -443 18 -715 30 -110 6 -196 9 -470 20 -123 4 -484 20 -713 30 -59 2
-159 7 -222 10 -416 18 -467 20 -690 29 -69 3 -174 8 -235 11 -60 3 -162 8
-225 10 -293 13 -353 16 -361 20 -4 3 -6 17 -3 33 4 34 13 135 19 230 2 41 7
97 9 125 45 469 52 1596 11 1942 -2 22 -7 74 -11 115 -3 41 -8 84 -10 95 -3
11 -7 38 -10 60 -2 22 -6 51 -8 65 -2 14 -7 45 -10 70 -4 25 -8 52 -10 60 -1
8 -6 33 -10 55 -4 22 -10 48 -13 58 -3 14 2 17 29 17 19 0 39 -5 46 -12z m714
-142 c95 -3 209 -5 252 -5 93 -1 91 -12 -4 -36 -89 -23 -242 -28 -310 -10 -68
18 -130 45 -130 57 0 5 4 7 9 4 5 -4 87 -8 183 -10z m-11727 -63 c28 -51 131
-133 228 -182 74 -36 294 -115 350 -124 12 -2 29 -7 37 -10 8 -3 42 -13 75
-22 33 -9 89 -25 125 -35 89 -25 182 -51 200 -55 8 -2 62 -18 120 -35 58 -18
114 -33 125 -36 11 -2 90 -24 175 -50 85 -25 164 -47 175 -50 11 -2 90 -24
175 -49 85 -25 162 -47 170 -49 8 -2 22 -6 30 -9 13 -5 592 -172 630 -182 8
-2 23 -4 33 -4 27 -1 20 -12 -69 -103 -68 -70 -111 -119 -198 -229 -46 -57
-174 -263 -224 -359 -50 -97 -76 -154 -153 -335 -14 -34 -79 -226 -83 -248 -3
-12 -14 -54 -25 -92 -18 -64 -26 -96 -36 -150 -3 -11 -9 -38 -14 -60 -6 -22
-13 -60 -17 -85 -3 -25 -8 -48 -10 -51 -1 -3 -6 -28 -9 -55 -4 -27 -8 -60 -11
-74 -5 -27 -18 -161 -23 -231 -1 -14 -8 -15 -43 -9 -24 4 -65 11 -93 14 -27 3
-59 8 -70 10 -11 2 -46 7 -79 11 -32 3 -68 8 -80 10 -11 2 -41 6 -66 9 -25 3
-54 8 -65 10 -11 2 -47 7 -80 10 -33 4 -67 9 -76 12 -9 2 -36 6 -60 9 -24 2
-107 13 -184 24 -139 20 -178 25 -265 36 -25 3 -56 7 -70 10 -14 3 -42 7 -64
10 -59 7 -118 15 -146 20 -14 2 -52 7 -85 11 -33 3 -69 8 -80 10 -25 5 -87 14
-140 19 -22 3 -51 7 -65 9 -37 8 -108 18 -209 30 -24 3 -62 8 -85 12 -48 7
-86 12 -141 19 -22 3 -55 7 -74 10 -19 2 -37 8 -41 12 -6 8 -60 182 -60 194 0
4 19 3 43 -1 23 -5 62 -11 87 -14 25 -3 54 -8 65 -10 11 -2 43 -7 70 -10 45
-6 79 -10 155 -21 14 -2 45 -7 70 -10 25 -3 57 -8 71 -10 14 -3 50 -7 80 -10
54 -6 94 -12 94 -15 0 -1 20 -3 43 -5 24 -2 53 -6 65 -9 12 -3 45 -8 72 -11
54 -6 95 -12 135 -19 31 -5 102 -15 155 -21 22 -3 55 -7 73 -10 17 -3 49 -8
70 -10 20 -3 69 -10 107 -15 39 -6 84 -12 100 -14 17 -3 44 -7 60 -9 17 -3 50
-8 75 -11 25 -3 55 -8 67 -10 12 -3 46 -7 75 -10 29 -4 64 -8 78 -11 14 -3 45
-7 70 -10 25 -3 56 -7 70 -10 43 -8 114 -17 146 -20 17 -1 36 -5 41 -8 15 -9
31 6 36 34 7 37 -2 46 -58 53 -27 3 -61 8 -75 10 -14 3 -45 7 -70 11 -25 3
-56 8 -70 10 -14 2 -48 6 -75 9 -27 4 -57 8 -65 11 -8 2 -37 6 -65 9 -27 3
-61 8 -75 10 -14 3 -45 7 -70 10 -25 3 -61 7 -80 10 -122 18 -259 38 -285 41
-16 2 -48 6 -70 9 -22 4 -58 9 -80 12 -22 3 -53 7 -70 10 -16 3 -48 7 -70 10
-22 3 -53 7 -70 9 -16 2 -30 4 -30 5 0 1 -13 3 -105 14 -25 3 -54 8 -65 10
-11 2 -45 7 -75 11 -58 8 -67 10 -140 19 -25 3 -54 8 -66 10 -12 2 -45 7 -75
11 -30 3 -61 8 -69 10 -8 2 -44 7 -80 10 -36 4 -67 8 -70 10 -3 1 -30 6 -60 9
-30 4 -64 8 -75 11 -11 2 -29 4 -39 4 -11 1 -16 4 -13 8 4 3 3 11 -2 17 -4 6
-16 36 -25 66 -34 107 -130 336 -185 445 -69 134 -119 210 -175 266 l-43 43
14 45 c13 43 17 63 28 151 3 19 7 46 10 60 5 30 16 155 19 223 1 29 8 52 17
58 13 9 63 7 116 -6 13 -3 33 -7 45 -10 13 -2 43 -9 68 -15 25 -5 56 -12 70
-14 14 -3 50 -10 80 -16 30 -6 70 -13 89 -16 18 -3 43 -8 55 -10 11 -3 57 -11
101 -19 76 -13 114 -20 160 -29 27 -5 159 -27 187 -31 23 -3 52 -8 158 -25 30
-5 75 -12 100 -15 25 -3 52 -8 60 -10 8 -2 38 -7 65 -10 28 -3 61 -7 75 -10
14 -2 45 -7 70 -10 25 -3 72 -10 105 -15 33 -5 87 -12 119 -16 33 -3 69 -8 80
-10 12 -2 41 -6 66 -9 46 -6 87 -11 150 -20 59 -8 133 -17 180 -20 25 -2 45
-4 45 -5 0 -1 23 -4 50 -7 103 -11 99 -12 106 30 3 20 3 37 0 37 -3 0 -35 4
-71 9 -36 5 -92 12 -125 16 -69 8 -115 13 -165 20 -19 3 -55 7 -80 10 -49 6
-77 9 -190 26 -41 5 -91 12 -110 14 -50 6 -111 14 -140 19 -14 3 -47 8 -75 11
-43 5 -94 12 -205 30 -14 2 -43 6 -65 10 -23 3 -52 7 -65 10 -13 3 -40 7 -60
10 -20 3 -45 7 -55 9 -11 2 -40 7 -65 11 -25 4 -52 9 -61 10 -9 2 -34 6 -55 9
-44 7 -136 23 -174 31 -40 8 -72 14 -115 20 -22 4 -82 15 -133 26 -50 11 -96
18 -101 14 -5 -3 -12 -1 -15 4 -4 5 -25 12 -49 16 -23 3 -50 9 -60 11 -19 6
-24 24 -6 24 22 0 143 109 213 191 36 43 105 148 143 219 27 49 101 226 108
254 1 6 5 18 8 26 12 28 37 138 37 159 0 16 6 21 28 22 28 0 60 4 122 13 45 7
140 33 148 40 15 16 39 2 57 -31z m-435 -32 c0 -9 -7 -44 -16 -76 -9 -33 -17
-67 -19 -75 -2 -8 -4 -16 -5 -17 -2 -2 -3 -6 -4 -10 -6 -28 -54 -141 -90 -213
-47 -94 -95 -167 -164 -249 -91 -108 -267 -230 -292 -205 -9 9 -7 15 5 25 40
32 225 218 225 226 0 4 10 19 23 33 42 48 188 310 171 310 -4 0 -2 6 4 13 12
15 75 212 81 257 1 3 19 4 41 2 29 -3 40 -9 40 -21z m17940 -326 c41 -3 91 -7
110 -10 19 -2 69 -7 110 -10 41 -3 95 -8 120 -11 25 -2 65 -6 90 -9 25 -3 65
-7 90 -9 25 -3 81 -8 125 -12 44 -3 94 -8 110 -9 36 -4 131 -13 200 -20 84 -8
149 -16 165 -20 8 -2 34 -9 58 -15 23 -6 42 -16 42 -23 0 -16 -172 -361 -182
-365 -4 -2 -8 -10 -8 -17 0 -8 -8 -18 -17 -23 -10 -5 -253 -10 -548 -10 -291
0 -537 -1 -546 -1 -16 -1 -17 -14 -5 -68 12 -57 69 -121 116 -131 54 -11 308
-19 703 -22 102 -1 136 -4 130 -13 -62 -107 -273 -332 -375 -401 -96 -64 -154
-89 -226 -98 -23 -2 -29 -13 -31 -62 l-1 -29 78 7 c42 3 88 8 102 11 14 3 36
7 50 10 50 7 181 61 245 98 34 20 80 51 85 57 3 4 15 13 28 22 42 29 169 157
220 223 94 120 214 343 287 535 27 69 49 126 51 128 1 2 19 -5 41 -16 87 -45
244 -69 431 -67 l130 1 -32 -25 c-18 -14 -39 -33 -48 -41 -9 -8 -39 -35 -67
-59 -134 -115 -375 -392 -414 -478 -5 -13 -14 -23 -19 -23 -4 0 -8 -5 -8 -11
0 -6 -14 -31 -31 -55 -44 -65 -200 -370 -192 -378 3 -3 1 -6 -5 -6 -7 0 -12
-5 -12 -11 0 -6 -18 -59 -41 -118 -62 -160 -77 -203 -84 -236 -3 -11 -9 -31
-14 -45 -14 -35 -81 -296 -87 -340 -3 -19 -11 -62 -18 -95 -8 -33 -14 -67 -15
-75 0 -14 -3 -29 -15 -95 -3 -16 -8 -52 -11 -80 -3 -27 -7 -59 -10 -70 -2 -11
-4 -23 -4 -27 -1 -4 -7 -5 -13 -3 -7 2 -123 7 -258 10 -243 5 -463 11 -675 19
-60 3 -130 5 -153 5 l-44 1 6 48 c4 26 9 63 11 82 3 19 7 55 10 80 3 25 8 65
11 90 3 25 7 63 9 85 10 103 16 164 20 210 3 28 7 75 10 105 2 30 7 80 10 110
3 30 8 91 11 135 3 44 7 100 8 125 2 25 7 99 11 165 4 66 8 143 10 170 4 65
14 258 21 410 6 140 6 612 0 732 l-4 83 37 -5 c20 -2 70 -7 111 -10z m5950
-70 c102 -11 120 -14 172 -24 169 -32 328 -79 453 -132 17 -7 32 -13 35 -13
26 -5 170 -82 174 -92 4 -10 -5 -9 -32 5 -37 19 -207 69 -267 78 -38 7 -60 11
-60 13 0 1 -18 3 -40 5 -21 3 -53 6 -70 9 -224 34 -386 44 -788 52 -263 4
-291 6 -320 24 -18 11 -30 20 -27 21 27 4 61 11 90 19 33 9 57 13 140 26 19 2
71 7 115 10 44 3 81 7 82 8 5 5 290 -3 343 -9z m-904 -109 c6 -6 24 -21 40
-34 178 -137 225 -172 233 -172 5 0 11 -3 13 -7 4 -10 145 -116 175 -131 12
-7 27 -18 35 -25 14 -13 307 -208 371 -246 20 -13 37 -25 37 -27 0 -9 -88 3
-240 30 -8 2 -22 6 -30 8 -8 3 -42 13 -75 22 -75 22 -263 91 -330 122 -27 13
-77 49 -110 80 -99 94 -254 214 -275 214 -5 0 -10 4 -10 8 0 4 -43 32 -95 62
-52 29 -93 55 -91 57 2 2 12 5 22 7 11 2 30 7 44 10 33 8 79 16 110 21 79 11
115 18 118 20 6 5 47 -9 58 -19z m-3749 -68 c-2 -24 -10 -56 -18 -73 -7 -16
-13 -32 -13 -35 -1 -5 -23 -63 -36 -95 -5 -11 -34 -74 -65 -140 -130 -272
-319 -498 -506 -604 -69 -38 -81 -40 -37 -3 125 103 331 362 424 532 10 19 22
37 25 40 9 8 134 243 138 260 2 8 11 26 21 40 9 14 21 36 25 50 8 29 33 70 42
70 3 0 3 -19 0 -42z m4583 -13 c58 -4 123 -8 145 -11 22 -2 73 -6 112 -9 40
-4 81 -8 91 -10 10 -1 45 -6 77 -10 33 -4 69 -9 80 -11 11 -2 31 -6 45 -9 144
-27 265 -64 324 -97 l40 -23 -3 -100 c-1 -55 -4 -111 -6 -125 -2 -14 -6 -41
-9 -61 -3 -20 -18 -66 -35 -102 l-29 -66 -114 38 c-128 43 -187 66 -333 132
-28 12 -52 23 -55 24 -22 5 -520 263 -530 274 -5 6 -81 48 -117 65 -13 6 -23
14 -23 19 0 4 -5 7 -11 7 -15 0 -139 73 -139 82 0 8 312 3 490 -7z m1094 -104
c3 -14 8 -55 12 -91 3 -36 8 -73 9 -82 2 -9 7 -48 11 -85 3 -37 12 -107 18
-155 7 -49 9 -88 5 -88 -10 0 -111 126 -128 158 -7 12 -14 39 -17 60 -7 62
-15 293 -9 302 3 4 25 8 50 7 39 0 45 -3 49 -26z m-1402 -92 c135 -80 351
-195 503 -267 61 -29 118 -57 127 -62 28 -16 287 -122 295 -121 2 0 19 -7 38
-15 58 -24 211 -62 223 -55 10 6 82 156 82 172 0 19 18 7 56 -38 21 -25 66
-75 98 -110 43 -46 60 -73 62 -96 9 -91 15 -109 49 -142 39 -36 44 -49 16 -40
-10 3 -49 12 -87 21 -38 8 -78 17 -89 19 -11 3 -33 8 -49 10 -38 7 -199 63
-256 88 -25 11 -54 22 -65 24 -11 2 -21 8 -23 13 -2 6 -8 10 -13 10 -14 0
-179 81 -185 91 -3 5 -14 9 -24 9 -10 0 -20 3 -22 8 -3 7 -28 21 -135 78 -29
16 -53 32 -53 36 0 4 -5 8 -11 8 -13 0 -192 111 -197 123 -2 4 -8 7 -14 7 -5
0 -29 14 -53 30 -24 17 -48 30 -53 30 -6 0 -12 4 -14 8 -1 4 -46 36 -98 72
-52 35 -96 67 -98 72 -2 4 -8 8 -14 8 -5 0 -21 9 -35 20 -37 29 -22 25 39 -11z
m-4612 -187 c0 -2 -7 -17 -16 -33 l-15 -31 -387 7 c-213 3 -410 8 -438 9 -51
4 -94 22 -94 41 0 7 162 10 475 10 261 0 475 -1 475 -3z m4520 -163 c86 -30
220 -67 275 -76 17 -3 49 -8 73 -13 24 -4 91 -7 150 -7 l107 0 79 -44 c149
-84 345 -181 461 -229 27 -12 138 -51 150 -55 6 -1 17 -4 25 -8 14 -5 46 -12
135 -33 17 -3 39 -8 50 -9 11 -2 38 -7 60 -13 22 -5 53 -13 68 -16 l28 -7 -6
-72 c-8 -88 -11 -133 -20 -262 -10 -148 -11 -150 -26 -146 -169 49 -255 57
-300 28 -13 -9 -36 -34 -49 -56 -14 -22 -28 -41 -32 -41 -5 0 -8 -6 -8 -12 0
-7 -7 -26 -16 -43 -40 -76 -112 -277 -150 -420 -2 -5 -12 -41 -23 -80 -12 -38
-23 -79 -25 -90 -2 -11 -9 -32 -15 -47 -6 -16 -8 -28 -6 -28 2 0 0 -11 -5 -25
-5 -14 -12 -36 -14 -48 -2 -12 -13 -60 -25 -107 -11 -47 -22 -97 -25 -110 -23
-110 -20 -107 -79 -115 -29 -4 -59 -8 -67 -10 -8 -1 -37 -6 -65 -9 -106 -15
-121 -17 -150 -22 -16 -3 -50 -9 -75 -13 l-45 -7 0 325 c0 281 -4 381 -20 546
-2 17 -4 30 -5 30 -1 0 -3 17 -5 39 -3 37 -15 114 -22 146 -1 8 -5 26 -7 40
-2 14 -9 50 -16 80 -26 124 -24 118 -32 140 -5 13 -43 142 -52 175 -7 28 -18
62 -26 80 -4 11 -20 52 -35 90 -15 39 -31 76 -37 83 -6 6 -8 12 -5 12 15 0
-192 371 -223 400 -13 13 -70 90 -70 95 0 4 8 4 18 0 9 -3 55 -20 102 -36z
m-24029 -559 c5 0 9 -6 9 -14 0 -8 4 -16 9 -18 11 -4 144 -277 144 -295 0 -7
4 -13 8 -13 3 0 9 -10 12 -22 8 -30 51 -150 59 -163 6 -11 128 -382 128 -391
0 -3 -44 -3 -97 0 -86 5 -100 9 -115 28 -10 13 -18 28 -18 33 0 6 -6 21 -13
35 -7 14 -23 54 -36 90 -12 36 -25 72 -28 80 -4 8 -7 18 -8 23 -2 4 -3 8 -5
10 -1 1 -3 9 -5 17 -2 8 -9 29 -15 45 -42 118 -58 180 -49 201 13 36 28 203
19 224 -1 3 -3 21 -5 40 -2 19 -5 55 -8 80 -3 25 -4 37 -1 28 3 -10 10 -18 15
-18z m25474 -474 c94 -17 185 -49 190 -67 14 -44 18 -78 17 -134 -5 -150 -17
-165 -100 -128 -80 36 -207 72 -271 79 -31 3 -56 6 -58 7 -6 7 82 189 107 219
31 38 33 38 115 24z m-123 -340 c7 -3 27 -7 43 -10 40 -6 133 -40 146 -53 7
-7 6 -14 -3 -22 -27 -24 -262 -191 -264 -188 -2 1 -6 29 -9 62 -3 33 -8 76
-11 95 -3 19 -6 57 -8 83 l-3 49 47 -6 c27 -3 54 -8 62 -10z m-17177 -63 c0
-6 2 -14 5 -16 5 -6 133 -14 340 -22 69 -3 172 -7 230 -10 58 -3 157 -8 220
-10 189 -8 339 -14 440 -20 52 -3 147 -7 210 -10 63 -2 174 -7 245 -11 72 -3
168 -8 215 -9 47 -2 85 -4 85 -4 0 -1 63 -4 140 -6 77 -3 176 -7 220 -10 44
-2 154 -7 245 -10 91 -4 201 -9 245 -11 44 -2 127 -6 185 -8 147 -6 357 -15
475 -21 55 -3 154 -7 220 -10 66 -3 172 -7 235 -10 198 -10 331 -15 452 -18
65 -1 118 -4 118 -7 0 -3 48 -6 108 -7 102 -1 249 -7 467 -18 307 -15 450 -21
690 -30 66 -2 167 -6 225 -9 129 -6 362 -16 490 -21 52 -2 154 -7 225 -10 72
-3 186 -7 255 -10 203 -8 379 -16 475 -20 50 -3 153 -7 230 -10 77 -3 187 -7
245 -10 95 -4 218 -9 505 -21 55 -2 152 -6 215 -8 63 -3 183 -7 265 -10 83 -4
206 -9 275 -12 157 -7 331 -13 485 -19 233 -8 441 -15 565 -20 69 -2 211 -7
315 -11 105 -3 231 -7 280 -9 50 -2 154 -4 233 -5 136 -3 147 -5 143 -32 -2
-13 -13 -213 -12 -231 0 -16 -23 -17 -412 -12 -227 3 -603 7 -837 10 -234 3
-587 7 -785 10 -426 5 -1291 15 -1666 19 -146 1 -270 6 -277 9 -6 4 -13 4 -16
-1 -5 -9 -81 -6 -98 4 -7 5 -8 3 -3 -6 5 -9 4 -11 -3 -6 -6 4 -213 9 -459 11
-246 3 -630 7 -853 10 -666 8 -1202 15 -1605 21 -209 3 -384 5 -390 5 -5 0
-19 0 -30 -1 -11 0 -198 1 -415 4 -402 5 -844 11 -1685 21 -258 3 -630 8 -825
10 -195 3 -546 7 -778 10 -233 3 -428 8 -433 11 -5 3 -7 10 -3 15 3 5 6 92 5
192 0 156 -3 242 -14 367 l-2 25 180 0 c170 0 180 1 177 19 -2 11 1 17 10 14
7 -3 13 -10 13 -15z m17490 -85 c-16 -261 -19 -305 -24 -329 -1 -6 -59 -23
-73 -21 -42 7 -79 15 -108 22 -38 10 -51 13 -118 25 -24 4 -45 13 -47 19 -16
54 -14 61 22 86 20 14 41 30 48 36 6 6 28 23 50 37 22 15 87 60 144 102 58 41
106 75 107 75 1 0 1 -24 -1 -52z m-481 -68 c4 -36 9 -81 11 -100 11 -88 15
-119 20 -170 3 -30 8 -71 10 -90 3 -19 7 -57 10 -85 2 -27 6 -60 9 -71 4 -19
-1 -23 -42 -30 -26 -4 -60 -8 -77 -9 -16 -1 -47 -6 -68 -10 -21 -4 -40 -5 -43
-2 -3 3 -1 22 5 43 6 22 13 55 16 74 3 19 10 39 15 46 6 6 8 13 5 15 -2 3 9
56 26 119 16 63 32 126 35 140 7 35 34 132 41 150 8 19 10 27 12 42 3 26 9 -1
15 -62z m186 -324 c14 -3 39 -8 55 -11 17 -4 37 -8 45 -10 8 -2 18 -4 21 -4 9
-1 11 -151 2 -152 -5 -1 -19 -3 -33 -5 -14 -1 -43 -5 -65 -8 -22 -2 -46 -6
-54 -8 -15 -3 -18 8 -26 97 -3 32 -8 72 -10 87 -6 30 -5 31 65 14z"/>
<path d="M8856 10554 c-3 -9 -6 -27 -6 -40 0 -21 5 -24 38 -25 20 0 109 -2
197 -4 88 -2 329 -6 535 -10 206 -4 452 -8 545 -10 458 -9 816 -16 965 -20
382 -8 723 -17 840 -20 157 -5 606 -16 810 -20 85 -2 155 -4 155 -5 0 -1 83
-3 185 -5 102 -2 262 -6 355 -9 154 -5 309 -10 675 -21 69 -2 206 -7 305 -10
99 -3 243 -8 320 -10 149 -5 447 -15 530 -18 28 -2 55 -6 62 -10 6 -4 14 -3
17 1 3 5 18 8 32 6 15 -1 102 -5 193 -9 91 -3 220 -8 286 -11 66 -2 179 -7
250 -9 72 -3 177 -7 235 -10 58 -2 173 -7 255 -10 83 -3 182 -7 220 -10 71 -4
282 -14 435 -21 110 -5 260 -12 380 -18 52 -3 142 -8 200 -11 58 -3 143 -8
190 -11 89 -6 147 -9 320 -18 194 -11 415 -26 440 -31 11 -2 20 -3 21 -2 0 1
2 20 5 43 3 29 1 41 -8 41 -7 1 -58 4 -113 8 -55 3 -129 8 -165 10 -68 3 -194
12 -320 21 -41 3 -118 7 -170 10 -52 2 -126 6 -165 8 -38 3 -133 8 -210 11
-77 4 -165 8 -195 10 -30 2 -118 7 -195 10 -77 4 -176 8 -220 10 -44 3 -138 7
-210 10 -71 3 -177 7 -235 10 -58 3 -161 7 -230 9 -69 3 -188 8 -265 11 -391
18 -651 27 -782 29 -68 0 -123 3 -123 6 0 3 -53 6 -118 6 -64 1 -207 5 -317 9
-561 19 -1092 36 -1626 49 -64 2 -121 6 -127 10 -7 4 -12 2 -12 -4 0 -6 -4 -9
-8 -6 -8 5 -167 10 -602 21 -85 2 -267 7 -405 10 -259 6 -442 11 -870 19 -137
3 -344 8 -460 11 -453 10 -1032 21 -1567 30 -231 3 -267 2 -272 -11z"/>
<path d="M5617 12714 c-1 -1 -36 -5 -77 -8 -82 -6 -108 -10 -220 -31 -75 -15
-261 -69 -291 -85 -8 -4 -51 -23 -95 -41 -397 -165 -776 -532 -963 -931 -49
-104 -62 -135 -66 -153 -2 -5 -12 -35 -23 -65 -24 -64 -58 -189 -66 -240 -3
-19 -8 -48 -12 -65 -7 -37 -13 -86 -19 -145 -5 -57 -6 -295 -1 -335 2 -16 7
-56 10 -88 8 -77 32 -195 58 -282 11 -38 21 -74 23 -80 1 -5 6 -19 10 -30 77
-195 139 -319 211 -423 24 -35 44 -67 44 -72 0 -4 3 -10 8 -12 4 -1 32 -34 63
-73 69 -86 174 -193 254 -260 33 -28 62 -53 63 -57 2 -5 10 -8 17 -8 7 0 15
-4 17 -8 4 -11 155 -112 167 -112 5 0 11 -4 13 -8 2 -5 59 -36 128 -70 147
-71 310 -128 419 -147 19 -3 37 -7 40 -9 11 -7 93 -19 211 -32 131 -15 382 -4
513 21 15 3 37 7 50 9 12 2 42 9 67 15 25 7 55 14 68 17 44 9 238 82 307 115
313 148 592 387 780 669 28 41 52 77 55 80 3 3 36 66 72 140 76 152 124 292
162 460 32 142 40 234 40 420 0 166 -8 242 -41 395 -8 39 -16 78 -18 88 -2 9
-6 21 -9 25 -3 5 -7 19 -10 33 -13 69 -134 347 -188 434 -154 242 -302 408
-498 555 -19 14 -46 35 -61 48 -15 12 -29 22 -32 22 -3 0 -26 13 -50 29 -117
80 -337 178 -497 222 -25 7 -49 14 -55 15 -5 2 -32 8 -60 14 -27 6 -61 13 -75
16 -28 6 -55 9 -150 19 -63 7 -288 13 -293 9z m278 -248 c144 -15 348 -65 450
-111 55 -24 100 -42 109 -43 5 0 12 -4 15 -9 3 -4 28 -19 54 -32 169 -85 389
-268 523 -436 57 -70 148 -211 176 -270 12 -27 27 -53 31 -56 5 -3 8 -9 8 -13
-1 -3 5 -19 12 -34 15 -28 41 -103 39 -112 0 -3 4 -10 8 -16 18 -21 73 -249
86 -353 17 -143 8 -389 -20 -526 -3 -16 -8 -39 -10 -50 -11 -53 -38 -145 -56
-195 -12 -30 -28 -72 -35 -93 -28 -74 -133 -261 -187 -332 -106 -139 -191
-231 -293 -313 -38 -31 -71 -60 -73 -64 -2 -5 -10 -8 -17 -8 -7 0 -15 -4 -17
-8 -6 -16 -114 -81 -223 -136 -93 -46 -250 -107 -317 -122 -10 -2 -27 -6 -39
-9 -11 -2 -28 -6 -37 -9 -9 -3 -34 -7 -56 -11 -21 -3 -41 -7 -45 -9 -12 -8
-168 -18 -266 -18 -135 0 -312 19 -365 39 -8 3 -24 7 -35 8 -31 3 -215 65
-260 88 -22 11 -42 20 -45 19 -9 -2 -195 101 -198 110 -2 4 -9 8 -16 8 -7 0
-21 8 -32 19 -11 10 -30 24 -43 30 -30 17 -143 115 -216 188 -66 66 -85 88
-130 148 -16 22 -33 42 -37 43 -4 2 -8 7 -8 12 0 4 -21 38 -46 76 -36 54 -139
246 -144 269 -2 13 -30 96 -40 120 -20 47 -56 210 -66 290 -1 17 -5 50 -8 75
-7 56 -7 252 -1 305 3 22 7 58 9 80 3 22 10 65 16 95 6 30 13 65 16 77 2 12 9
34 14 48 5 14 7 25 4 25 -4 0 -2 6 4 13 5 6 13 28 17 47 9 42 22 73 87 210
160 332 433 608 766 775 52 26 99 48 105 49 7 1 21 7 32 13 11 6 38 16 60 22
22 7 47 15 55 18 8 3 20 7 25 8 6 2 37 10 70 19 33 8 77 17 97 20 21 2 41 7
45 9 5 3 49 8 98 12 50 4 91 8 92 9 5 5 191 -2 258 -8z"/>
<path d="M5608 12386 c-1 -2 -37 -7 -77 -10 -41 -4 -77 -9 -80 -11 -4 -2 -24
-6 -46 -9 -39 -6 -146 -33 -175 -43 -8 -4 -19 -7 -25 -8 -64 -16 -274 -117
-358 -173 -22 -15 -48 -32 -58 -38 -101 -59 -322 -285 -401 -409 -18 -27 -35
-52 -39 -55 -4 -3 -30 -52 -59 -110 -28 -58 -55 -113 -61 -122 -5 -10 -9 -25
-9 -33 0 -8 -5 -15 -12 -15 -6 0 -8 -3 -5 -7 4 -3 2 -12 -4 -20 -6 -7 -9 -13
-6 -13 4 0 -1 -19 -9 -42 -16 -46 -42 -144 -50 -193 -3 -16 -7 -41 -10 -55
-17 -97 -22 -265 -11 -390 9 -96 14 -131 36 -225 17 -73 19 -80 41 -140 12
-33 23 -64 24 -70 21 -77 120 -257 209 -380 97 -134 394 -405 444 -405 7 0 13
-4 13 -8 0 -7 130 -76 220 -116 109 -48 294 -96 440 -113 70 -8 266 -8 350 0
102 10 204 31 265 54 22 8 41 14 43 14 1 -1 4 0 7 0 3 1 8 2 13 3 38 9 195 73
232 95 8 5 42 24 75 41 33 18 62 35 65 39 3 4 22 17 43 30 21 13 43 28 50 34
7 7 34 30 62 52 90 72 188 176 274 290 17 22 35 45 41 52 5 7 10 15 10 17 0 3
15 29 33 58 18 29 50 88 70 130 31 65 50 117 105 288 6 17 6 18 26 125 18 101
17 81 19 275 1 91 -2 185 -6 210 -23 145 -24 147 -42 210 -9 30 -17 62 -19 70
-26 108 -145 343 -231 458 -69 92 -80 106 -160 186 -158 161 -289 251 -516
354 -111 51 -270 94 -429 117 -48 7 -306 16 -312 11z m302 -91 c64 -8 295 -62
319 -75 14 -7 45 -20 61 -25 6 -1 64 -28 113 -50 17 -8 41 -21 52 -27 11 -7
43 -26 70 -42 148 -89 295 -223 414 -381 38 -49 78 -107 90 -127 11 -21 30
-54 41 -73 11 -20 20 -42 20 -49 0 -8 4 -16 8 -18 11 -4 82 -186 98 -253 2 -5
6 -23 9 -40 3 -16 10 -46 15 -65 17 -62 23 -141 23 -290 -1 -162 -6 -223 -28
-325 -103 -465 -404 -848 -830 -1055 -96 -47 -247 -102 -310 -114 -154 -30
-217 -37 -325 -39 -115 -1 -227 6 -283 17 -80 17 -207 48 -232 57 -68 25 -130
51 -210 90 -73 36 -203 119 -277 179 -65 52 -187 178 -238 245 -25 33 -48 62
-52 63 -5 2 -8 9 -8 15 0 6 -6 18 -14 26 -26 29 -102 176 -138 266 -40 98 -83
251 -93 330 -4 28 -9 66 -12 85 -6 51 -6 257 2 315 9 69 14 107 18 125 2 8 7
31 11 50 70 328 282 665 546 868 30 23 60 45 65 50 6 4 33 22 60 39 194 122
443 210 650 229 33 3 61 7 63 8 5 5 249 -2 302 -9z"/>
<path d="M5717 12203 c-1 0 -42 -4 -92 -7 -109 -8 -144 -11 -170 -19 -11 -3
-36 -8 -56 -11 -20 -3 -83 -21 -140 -41 -57 -19 -111 -37 -119 -39 -8 -2 -14
-9 -12 -17 4 -14 38 -65 64 -93 35 -38 188 -274 232 -359 51 -95 106 -231 106
-259 0 -22 9 -22 79 -3 34 9 85 13 135 11 69 -4 121 -10 121 -16 0 -1 11 -4
25 -6 23 -4 30 3 59 58 75 143 116 215 143 255 15 23 28 45 28 49 0 3 16 29
35 55 19 27 35 51 35 54 0 5 70 106 80 115 3 3 18 23 35 45 16 22 37 47 47 56
10 9 18 19 18 22 0 21 -245 105 -355 122 -22 3 -53 8 -70 11 -43 8 -224 22
-228 17z m13 -83 c16 5 30 7 32 5 2 -2 39 -6 83 -10 105 -8 211 -29 313 -61
82 -25 83 -26 68 -47 -8 -12 -20 -20 -28 -19 -7 2 -22 6 -33 8 -11 2 -31 6
-45 9 -57 12 -78 16 -130 22 -30 4 -63 7 -72 7 -10 0 -18 3 -18 6 0 12 -316 1
-420 -15 -91 -14 -120 -20 -151 -31 -34 -12 -38 -11 -58 12 -12 13 -21 26 -21
28 0 6 117 43 175 55 70 15 120 22 189 27 33 2 62 6 65 9 2 3 9 1 14 -4 5 -5
21 -5 37 -1z m170 -164 c47 -3 92 -7 100 -9 8 -2 33 -7 55 -11 63 -12 108 -28
98 -35 -8 -6 -73 -102 -120 -181 -18 -28 -85 -149 -149 -265 -6 -11 -17 -18
-25 -15 -8 2 -71 5 -141 5 l-127 -1 -17 46 c-33 90 -134 274 -215 392 -20 29
-23 39 -11 36 4 -1 32 4 62 10 94 21 103 22 174 27 38 3 71 6 72 8 4 4 132 0
244 -7z"/>
<path d="M4964 11987 c-6 -7 -23 -21 -38 -32 -65 -48 -86 -68 -78 -79 4 -6 14
-29 21 -51 19 -59 119 -257 142 -281 11 -11 16 -24 12 -27 -3 -4 -2 -7 3 -7 5
0 20 -18 34 -40 14 -22 28 -40 32 -40 5 0 8 -5 8 -11 0 -29 346 -389 373 -389
7 0 24 10 39 23 l26 22 -24 80 c-14 44 -26 85 -28 90 -10 34 -68 170 -89 210
-12 22 -21 42 -22 45 -1 11 -111 188 -148 240 -77 105 -221 260 -241 260 -6
-1 -16 -6 -22 -13z m138 -219 c15 -20 33 -42 40 -50 21 -21 108 -157 108 -167
0 -5 3 -11 8 -13 10 -4 104 -188 96 -188 -4 0 -2 -6 4 -12 16 -20 61 -136 55
-142 -5 -5 -80 68 -153 150 -121 135 -221 291 -299 467 l-22 48 23 19 23 19
45 -47 c25 -26 57 -64 72 -84z"/>
<path d="M6505 11944 c-61 -45 -85 -65 -150 -129 -62 -61 -155 -172 -220 -262
-62 -86 -177 -300 -228 -425 -16 -37 -15 -38 13 -58 15 -11 33 -20 38 -20 11
0 144 94 212 150 175 143 366 380 466 576 l38 75 -30 24 c-16 13 -34 24 -41
25 -6 0 -13 4 -15 8 -1 4 -17 17 -33 29 -27 19 -33 20 -50 7z m54 -108 c9 -10
3 -28 -25 -77 -44 -79 -105 -169 -157 -234 -52 -65 -230 -242 -282 -280 -22
-17 -46 -37 -53 -45 -23 -27 -3 29 41 110 92 173 228 352 357 473 72 67 98 79
119 53z"/>
<path d="M4652 11727 c-57 -68 -141 -196 -184 -277 -36 -70 -88 -190 -92 -212
-1 -7 -5 -18 -8 -24 -4 -6 -9 -21 -12 -35 -3 -13 -11 -49 -20 -79 -8 -30 -17
-73 -20 -95 -4 -23 -9 -52 -12 -65 -7 -33 -13 -293 -7 -323 l5 -24 131 45 c73
24 139 45 147 47 8 2 48 12 89 24 40 11 76 20 80 19 3 0 8 1 11 2 8 3 33 8 80
15 111 18 153 21 219 20 39 0 71 2 72 5 0 3 2 31 4 62 4 75 30 157 75 231 l37
61 -51 52 c-100 103 -162 170 -216 234 -30 36 -58 67 -61 70 -14 11 -140 183
-176 239 -21 34 -40 60 -43 60 -3 0 -24 -24 -48 -52z m55 -150 c-11 -18 -26
-45 -35 -62 -10 -16 -21 -33 -25 -36 -5 -3 -9 -10 -10 -15 0 -5 -17 -45 -37
-89 -60 -128 -111 -280 -126 -375 -3 -14 -9 -48 -15 -76 -5 -28 -12 -82 -14
-120 -5 -71 -19 -94 -56 -94 -14 0 -16 11 -13 88 1 48 3 87 4 87 1 0 3 14 5
30 3 33 11 83 22 130 4 17 7 32 8 35 28 138 109 323 208 470 59 87 67 94 87
74 13 -13 13 -18 -3 -47z m173 -175 c57 -69 127 -147 229 -255 l34 -36 -20
-34 c-32 -54 -64 -160 -64 -209 0 -12 -8 -18 -22 -19 -63 -2 -131 -11 -212
-25 -49 -9 -99 -18 -110 -20 -11 -1 -59 -14 -106 -27 l-86 -24 2 41 c2 22 6
59 10 81 4 22 7 48 7 57 0 10 4 20 9 23 5 4 7 10 4 14 -4 8 28 146 42 181 3 8
7 20 8 25 12 48 96 234 138 303 l32 53 25 -31 c14 -17 50 -61 80 -98z"/>
<path d="M6693 11632 c-46 -64 -93 -128 -105 -142 -13 -14 -39 -45 -59 -70
-87 -108 -276 -280 -309 -280 -15 0 -12 -26 5 -40 14 -12 52 -86 75 -146 11
-29 23 -100 24 -146 0 -21 3 -38 6 -39 3 0 12 -2 20 -4 8 -2 33 -6 55 -10 22
-3 54 -9 70 -12 17 -3 39 -7 50 -9 11 -2 31 -5 45 -9 14 -3 41 -8 60 -11 19
-3 38 -8 43 -11 4 -2 20 -7 35 -9 86 -16 279 -73 381 -113 61 -25 70 -20 72
39 3 73 0 237 -5 289 -12 130 -65 322 -123 451 -14 30 -29 64 -34 75 -5 11
-15 29 -21 40 -7 11 -33 51 -57 90 -48 76 -130 185 -140 185 -3 -1 -43 -54
-88 -118z m141 -77 c20 -30 36 -59 36 -65 0 -5 4 -10 8 -10 4 0 13 -12 19 -27
7 -16 17 -35 22 -43 38 -55 110 -258 136 -381 29 -139 39 -360 16 -359 -25 2
-40 32 -46 93 -5 61 -15 125 -30 202 -9 47 -25 105 -48 175 -12 36 -22 67 -22
70 -9 36 -81 188 -128 270 -42 75 -47 87 -36 107 19 35 33 28 73 -32z m-104
-122 c0 -6 3 -13 8 -15 11 -5 119 -238 124 -268 0 -3 2 -9 4 -15 7 -23 35
-124 38 -141 3 -11 9 -40 15 -66 10 -44 18 -98 26 -176 3 -30 1 -33 -18 -29
-33 8 -187 47 -227 58 -19 5 -46 11 -60 13 -14 3 -50 10 -80 16 -73 14 -122
23 -138 23 -7 0 -14 10 -17 21 -21 98 -40 163 -60 203 l-24 47 21 15 c58 44
228 220 313 324 l39 49 18 -24 c9 -13 18 -28 18 -35z"/>
<path d="M5672 11240 c-107 -44 -80 -207 36 -215 78 -6 129 50 119 130 -10 70
-87 112 -155 85z m74 -96 c4 -17 2 -29 -7 -35 -19 -12 -25 -11 -43 7 -12 12
-13 20 -6 35 16 28 48 24 56 -7z"/>
<path d="M6014 10991 c-45 -27 -62 -66 -52 -116 16 -74 79 -110 150 -86 66 23
94 107 55 166 -36 56 -98 70 -153 36z m85 -80 c15 -27 -9 -56 -37 -47 -24 8
-29 35 -10 54 17 17 36 15 47 -7z"/>
<path d="M5338 10983 c-10 -2 -18 -9 -18 -14 0 -5 -6 -9 -13 -9 -7 0 -20 -15
-28 -32 -40 -86 13 -168 107 -168 51 0 104 53 104 104 0 43 -22 91 -49 106
-24 12 -80 20 -103 13z m60 -85 c15 -15 16 -45 2 -53 -15 -9 -47 3 -54 20 -5
14 18 45 33 45 4 0 12 -5 19 -12z"/>
<path d="M5676 10968 c-9 -5 -16 -6 -16 -3 0 10 -63 -28 -82 -50 -28 -30 -49
-73 -53 -107 -2 -16 -6 -32 -9 -35 -9 -9 32 -105 56 -130 76 -81 199 -86 280
-11 98 93 76 257 -43 318 -41 22 -110 31 -133 18z m105 -95 c67 -40 71 -135 7
-188 -34 -28 -72 -32 -123 -11 -40 17 -58 47 -61 103 -2 33 4 48 24 71 15 16
34 32 42 35 30 11 83 7 111 -10z"/>
<path d="M6090 10710 c-8 -5 -15 -14 -16 -22 -1 -7 -5 -20 -9 -29 -3 -10 0
-22 7 -28 7 -6 29 -25 48 -41 19 -16 38 -30 42 -30 4 0 13 -6 20 -14 19 -19
160 -105 243 -148 95 -49 280 -122 365 -143 53 -13 163 -35 207 -41 57 -7 66
1 76 62 3 17 10 41 16 52 21 40 13 57 -51 99 -59 38 -219 123 -232 123 -3 0
-25 9 -49 19 -35 16 -126 48 -162 58 -5 1 -44 11 -85 22 -41 11 -93 22 -115
26 -45 7 -70 13 -70 15 0 1 -16 3 -35 4 -53 4 -164 17 -176 21 -6 2 -17 -1
-24 -5z m250 -107 c14 -3 32 -7 40 -9 61 -12 85 -16 85 -14 0 1 14 -4 30 -10
17 -7 41 -14 55 -16 37 -7 250 -84 260 -94 3 -3 39 -22 80 -43 41 -20 86 -46
99 -56 24 -18 24 -20 7 -45 -9 -15 -21 -24 -27 -21 -5 4 -19 8 -32 11 -36 7
-60 12 -94 23 -18 5 -33 7 -33 5 0 -3 -6 -2 -12 3 -7 4 -21 9 -31 10 -68 11
-344 137 -442 202 -22 14 -52 32 -67 40 -16 8 -28 18 -28 22 0 7 65 3 110 -8z"/>
<path d="M5086 10682 c-2 -1 -23 -5 -47 -7 -42 -4 -102 -13 -144 -21 -11 -2
-33 -7 -50 -10 -16 -2 -48 -10 -70 -15 -22 -6 -41 -11 -42 -10 -17 5 -370
-140 -402 -165 -1 -1 10 -41 25 -88 33 -99 23 -94 159 -82 110 10 132 13 210
31 27 6 155 41 180 49 6 2 13 4 18 5 4 0 21 8 37 16 16 8 33 16 37 16 43 5
352 161 396 200 17 15 17 18 2 51 l-17 34 -145 -1 c-79 0 -146 -1 -147 -3z
m144 -82 c0 -8 -168 -89 -250 -121 -46 -18 -160 -56 -195 -65 -87 -23 -202
-45 -270 -50 -72 -6 -72 -6 -79 21 -4 15 -6 28 -4 30 13 10 141 65 151 65 7 0
17 4 23 8 5 5 36 17 69 26 33 10 71 22 85 27 14 4 36 11 50 13 14 3 36 8 50
11 59 13 122 22 220 31 41 3 76 7 77 8 6 5 73 1 73 -4z"/>
<path d="M5903 10586 c-57 -51 -63 -61 -63 -104 0 -37 6 -50 34 -78 29 -29 41
-34 79 -34 37 0 51 5 76 31 17 17 32 36 32 42 1 7 3 23 4 37 3 32 -19 76 -50
96 -30 19 -96 26 -112 10z m78 -89 c4 -5 4 -18 1 -29 -6 -25 -55 -21 -60 5 -7
37 38 56 59 24z"/>
<path d="M5498 10582 c-40 -5 -88 -64 -88 -109 0 -46 34 -97 74 -111 35 -13
48 -12 92 6 53 22 79 115 44 157 -7 8 -9 15 -4 15 15 0 -30 27 -61 36 -16 5
-42 8 -57 6z m52 -86 c0 -2 3 -11 6 -19 9 -23 -24 -49 -47 -37 -19 10 -26 40
-12 53 7 8 53 10 53 3z"/>
<path d="M5165 10382 c-38 -21 -73 -39 -77 -40 -5 -1 -36 -15 -70 -31 -75 -34
-264 -112 -281 -115 -7 -2 -24 -8 -39 -14 -29 -12 -137 -45 -206 -62 -50 -13
-51 -7 37 -140 67 -102 309 -350 340 -350 5 0 11 -4 13 -9 9 -23 212 -141 313
-181 33 -13 65 -27 71 -32 7 -5 16 -8 20 -6 5 1 36 -6 69 -16 33 -10 65 -20
70 -21 6 -1 14 -4 20 -6 6 -3 10 63 11 176 1 164 9 316 20 369 2 12 6 35 8 51
9 64 17 101 28 135 7 19 13 37 13 40 4 21 19 56 27 61 5 3 -17 16 -49 28 -83
32 -146 75 -207 142 -29 33 -55 59 -57 59 -2 0 -35 -18 -74 -38z m92 -99 c54
-52 71 -64 135 -103 l55 -33 -14 -46 c-28 -95 -50 -255 -57 -433 -1 -20 -4
-40 -8 -43 -15 -16 -351 171 -393 219 -5 6 -27 23 -47 38 -52 40 -219 210
-212 217 3 3 9 6 12 7 4 0 16 4 27 9 11 4 65 26 120 47 96 38 294 128 325 147
8 6 16 10 17 10 1 1 19 -16 40 -36z m-524 -326 c62 -62 132 -129 156 -148 24
-19 48 -39 55 -44 49 -45 267 -169 384 -218 23 -10 42 -25 42 -32 0 -7 3 -20
6 -29 8 -22 -18 -21 -91 5 -67 23 -205 91 -247 120 -14 11 -31 19 -36 19 -6 0
-12 3 -14 8 -1 4 -25 23 -53 42 -66 46 -96 72 -179 156 -77 77 -82 84 -139
158 -42 55 -44 63 -19 69 9 3 18 5 20 6 1 0 53 -50 115 -112z"/>
<path d="M5695 10382 c-39 -92 -91 -282 -101 -366 -4 -28 -8 -54 -10 -57 -6
-11 -18 -187 -18 -274 0 -99 10 -216 24 -285 5 -25 9 -48 10 -53 0 -9 163 -8
178 2 6 3 20 40 31 81 19 73 23 90 38 195 9 62 9 367 0 455 -3 36 -11 90 -17
120 -6 30 -13 66 -15 80 -3 14 -7 36 -10 50 -3 14 -8 36 -11 50 -7 33 -10 35
-50 36 -31 1 -36 -2 -49 -34z m50 -163 c12 -74 16 -100 22 -159 9 -84 9 -319
1 -390 -4 -30 -10 -75 -13 -100 -3 -25 -11 -67 -18 -95 -12 -44 -16 -50 -43
-52 -22 -2 -30 2 -30 15 -1 9 -5 49 -9 87 -21 186 -3 413 51 624 13 51 24 96
24 99 0 14 11 -8 15 -29z"/>
<path d="M6187 10391 c-37 -62 -170 -157 -249 -176 -23 -6 -27 -11 -24 -34 5
-24 9 -59 22 -156 3 -22 7 -51 9 -65 3 -23 12 -115 21 -220 5 -66 5 -350 0
-358 -3 -5 -1 -13 3 -20 9 -15 129 14 242 58 42 17 81 30 87 30 5 0 12 3 14 8
2 4 29 19 61 35 54 25 177 102 221 137 71 56 169 147 214 197 74 83 173 224
170 241 -2 8 -27 21 -58 29 -59 15 -92 26 -215 71 -218 80 -372 159 -454 231
-32 28 -43 27 -64 -8z m95 -115 c90 -57 304 -156 411 -190 9 -3 17 -9 17 -14
0 -11 -132 -146 -190 -194 -126 -104 -198 -152 -339 -224 -67 -35 -115 -54
-120 -48 -5 5 -12 61 -15 124 -4 63 -9 134 -11 158 -3 23 -7 59 -9 80 -5 42
-16 125 -21 160 -3 18 5 26 43 43 49 23 124 78 156 116 11 13 21 23 23 23 1 0
26 -15 55 -34z m564 -242 c18 -5 21 -9 11 -18 -7 -7 -21 -25 -32 -40 -126
-175 -332 -341 -537 -435 -102 -46 -138 -61 -138 -54 0 3 -6 1 -12 -5 -7 -5
-30 -14 -50 -20 -36 -10 -37 -10 -36 18 1 24 8 31 47 46 25 10 47 17 49 15 1
-1 10 5 18 14 9 8 20 13 25 10 5 -4 9 -3 9 2 0 4 25 19 55 33 30 14 55 28 55
33 0 4 5 7 11 7 6 0 40 20 76 45 35 25 68 45 73 45 4 0 10 3 12 8 2 4 26 25
53 46 63 49 255 243 255 258 0 5 7 7 16 4 9 -3 27 -9 40 -12z"/>
<path d="M22297 12714 c-1 -1 -33 -4 -72 -8 -152 -15 -177 -19 -285 -46 -25
-6 -49 -12 -55 -13 -5 -1 -16 -6 -22 -10 -7 -5 -13 -6 -13 -3 0 5 -142 -43
-205 -69 -71 -30 -220 -107 -223 -116 -2 -5 -8 -9 -14 -9 -16 0 -145 -88 -233
-160 -189 -154 -368 -367 -471 -560 -16 -30 -31 -57 -34 -60 -4 -3 -16 -30
-29 -60 -13 -30 -27 -59 -32 -65 -5 -5 -9 -14 -9 -21 0 -6 -7 -29 -16 -50 -9
-22 -16 -40 -16 -41 1 -2 -6 -22 -14 -45 -25 -70 -59 -208 -69 -278 -1 -8 -5
-33 -9 -55 -16 -101 -23 -349 -12 -435 3 -19 7 -60 11 -90 55 -479 327 -954
725 -1271 52 -41 265 -182 280 -184 3 -1 39 -18 80 -39 78 -39 106 -50 230
-92 69 -23 170 -50 230 -60 14 -3 32 -7 40 -9 8 -3 38 -7 65 -11 174 -22 407
-21 550 2 22 3 47 7 55 8 155 23 359 90 534 177 296 148 549 369 740 646 31
46 56 85 56 87 0 2 15 29 34 60 34 56 118 242 132 291 1 6 14 45 28 88 14 43
25 81 24 85 -1 4 4 25 10 47 34 122 51 300 46 485 -3 80 -6 154 -8 165 -12 82
-20 131 -21 135 -1 3 -5 25 -10 50 -5 25 -9 47 -10 50 -1 3 -5 19 -9 35 -63
239 -181 481 -330 678 -76 99 -228 267 -242 267 -3 0 -19 13 -35 30 -16 16
-67 56 -112 89 -45 34 -87 65 -94 71 -7 5 -14 10 -17 10 -2 0 -33 18 -69 40
-155 93 -441 205 -582 226 -25 3 -92 15 -116 19 -64 12 -371 28 -382 19z m278
-249 c39 -3 90 -10 115 -15 25 -6 56 -11 70 -14 26 -4 103 -24 130 -34 8 -3
23 -7 33 -9 10 -1 31 -10 47 -18 16 -8 34 -15 40 -15 20 0 224 -102 295 -148
274 -177 490 -420 625 -704 39 -83 101 -240 98 -251 0 -1 5 -22 12 -47 23 -85
40 -175 47 -250 12 -135 7 -351 -11 -445 -2 -11 -7 -40 -11 -65 -19 -124 -87
-318 -162 -460 -93 -176 -228 -352 -362 -470 -35 -30 -68 -60 -74 -66 -27 -24
-158 -114 -167 -114 -6 0 -10 -4 -10 -8 0 -26 -376 -187 -485 -208 -11 -2 -42
-8 -70 -14 -90 -18 -99 -20 -175 -26 -484 -40 -926 104 -1290 421 -47 41 -146
142 -173 177 -12 16 -30 39 -41 51 -71 83 -246 395 -246 439 0 8 -3 18 -7 22
-4 3 -8 12 -10 19 -1 7 -16 59 -33 117 -17 58 -32 121 -35 140 -2 19 -7 46
-10 60 -14 52 -13 404 1 485 7 44 16 98 19 120 4 21 9 43 11 47 3 5 8 20 10
34 5 26 36 123 57 179 25 64 112 233 154 297 149 231 335 406 598 566 40 24
187 92 199 92 6 0 16 4 22 9 14 13 160 57 245 75 120 24 131 26 209 32 41 4
76 7 77 8 5 4 192 -3 258 -9z"/>
<path d="M22278 12385 c-2 -2 -30 -6 -63 -8 -33 -2 -67 -7 -75 -10 -8 -3 -33
-9 -55 -12 -22 -3 -58 -10 -80 -16 -22 -6 -47 -12 -55 -14 -40 -8 -224 -82
-297 -120 -176 -92 -353 -232 -475 -377 -24 -28 -48 -56 -54 -62 -5 -6 -19
-26 -29 -43 -11 -18 -22 -33 -26 -33 -4 0 -12 -13 -19 -30 -7 -16 -16 -30 -20
-30 -9 0 -124 -233 -140 -285 -7 -22 -15 -44 -19 -50 -3 -5 -7 -14 -8 -20 -1
-5 -14 -55 -28 -110 -14 -55 -27 -118 -29 -140 -3 -22 -8 -65 -12 -95 -13 -95
-7 -311 11 -405 3 -16 8 -43 12 -60 3 -16 8 -37 9 -45 7 -45 18 -83 45 -160
17 -47 31 -90 33 -96 1 -7 7 -18 12 -25 6 -8 17 -30 24 -49 34 -86 178 -308
244 -376 12 -11 30 -32 42 -45 53 -61 187 -175 279 -236 102 -69 291 -161 368
-179 15 -3 30 -10 33 -15 3 -5 18 -9 35 -9 16 0 29 -5 29 -11 0 -5 4 -8 9 -5
5 3 31 -1 58 -9 28 -8 63 -16 79 -17 16 -1 33 -4 38 -6 40 -21 392 -19 509 3
15 3 37 7 50 9 48 9 123 27 137 33 8 3 18 7 23 8 4 2 8 3 10 4 1 2 13 5 27 7
13 3 29 9 34 14 6 6 16 10 23 10 21 0 170 69 248 116 145 85 312 228 425 362
51 61 140 189 140 203 0 5 5 9 12 9 6 0 8 3 5 6 -4 4 2 19 13 34 11 16 20 31
20 34 0 3 17 40 38 83 21 43 39 81 40 86 1 4 3 9 3 12 1 3 2 8 3 13 1 4 14 45
28 92 15 47 29 103 33 125 12 70 14 79 21 110 10 49 13 357 3 409 -5 26 -11
62 -13 79 -26 200 -124 443 -255 637 -120 177 -291 344 -461 450 -30 19 -57
37 -60 40 -11 12 -231 111 -291 131 -80 26 -154 46 -199 53 -19 3 -46 8 -60
11 -14 3 -41 8 -60 11 -41 6 -317 14 -322 9z m300 -89 c35 -4 73 -10 85 -12
12 -3 33 -7 47 -10 193 -39 460 -156 588 -259 126 -101 165 -136 242 -221 49
-54 130 -159 130 -169 0 -4 11 -21 24 -38 69 -92 175 -349 202 -492 4 -22 9
-47 10 -55 25 -124 25 -413 0 -535 -20 -96 -45 -187 -63 -235 -4 -8 -7 -17 -7
-20 -7 -41 -131 -284 -173 -339 -110 -145 -140 -178 -229 -261 -81 -75 -247
-195 -305 -220 -13 -5 -31 -14 -39 -19 -44 -26 -198 -87 -270 -107 -225 -63
-493 -75 -703 -33 -29 6 -61 12 -72 14 -33 5 -186 56 -235 77 -147 65 -277
143 -382 228 -67 55 -189 180 -238 246 -25 32 -48 61 -52 62 -5 2 -8 8 -8 14
0 5 -11 24 -25 42 -14 18 -22 36 -18 39 3 4 2 7 -4 7 -15 0 -117 223 -148 322
-34 115 -40 144 -61 298 -6 49 -7 266 0 315 27 204 73 359 159 533 46 91 123
214 139 220 4 2 8 7 8 12 0 20 173 200 255 265 28 22 52 43 53 48 2 4 7 7 11
7 5 0 41 22 82 49 40 27 77 48 80 45 4 -2 9 0 11 4 5 13 133 72 227 104 78 26
136 42 201 54 14 3 41 9 62 13 20 5 48 7 62 6 14 -2 28 0 30 4 6 9 240 7 324
-3z"/>
<path d="M22347 12203 c-1 -1 -34 -4 -72 -8 -94 -8 -123 -13 -220 -35 -66 -15
-227 -69 -242 -82 -10 -8 -1 -25 35 -72 26 -33 49 -63 52 -66 15 -13 161 -242
186 -290 16 -30 32 -56 37 -58 4 -2 7 -8 7 -13 0 -4 11 -32 24 -61 13 -29 33
-83 45 -119 l22 -66 42 15 c60 22 219 24 282 3 l49 -16 44 85 c63 122 164 294
174 298 4 2 8 8 8 13 0 21 65 113 222 316 6 8 -8 19 -45 37 -52 24 -203 73
-257 82 -14 2 -36 7 -50 10 -38 9 -79 15 -140 19 -68 5 -201 11 -203 8z m72
-83 c10 5 20 8 22 6 2 -2 36 -7 74 -10 140 -12 293 -43 367 -75 37 -15 38 -17
23 -38 -15 -21 -17 -21 -63 -8 -26 8 -67 17 -92 20 -25 3 -52 8 -60 10 -60 16
-303 23 -425 12 -122 -12 -146 -16 -223 -36 l-71 -18 -21 25 c-18 20 -19 26
-9 33 13 8 69 26 109 34 8 2 48 11 89 19 41 9 112 19 159 21 47 3 88 8 91 11
3 3 7 1 9 -5 2 -7 10 -8 21 -1z m170 -164 c57 -6 90 -11 151 -23 19 -3 40 -7
45 -7 6 -1 20 -5 32 -9 22 -8 22 -8 -10 -55 -18 -26 -34 -49 -38 -52 -7 -7
-138 -230 -182 -310 -27 -51 -39 -64 -54 -60 -10 3 -73 5 -141 5 -114 0 -123
1 -128 20 -4 11 -25 58 -47 105 -22 47 -40 88 -39 92 1 3 -5 12 -13 18 -8 7
-15 19 -15 26 0 8 -4 14 -10 14 -5 0 -10 5 -10 12 0 11 -19 43 -82 135 -29 42
-26 55 12 59 18 1 75 12 110 19 14 3 61 8 105 11 44 3 81 7 82 8 4 4 171 -2
232 -8z"/>
<path d="M21646 11984 c-9 -8 -16 -13 -16 -10 0 3 -8 -2 -18 -11 -9 -10 -32
-30 -51 -44 -33 -26 -33 -27 -22 -65 46 -149 189 -390 320 -539 54 -60 229
-237 263 -264 29 -23 30 -23 62 -6 30 17 32 20 26 54 -34 180 -206 525 -348
701 -63 77 -181 200 -193 200 -4 0 -15 -7 -23 -16z m183 -278 c77 -104 135
-200 186 -311 45 -98 86 -205 78 -205 -8 0 -114 110 -173 179 -63 75 -161 212
-190 268 -14 27 -28 50 -32 51 -5 2 -8 8 -8 13 0 6 -9 29 -21 52 -11 23 -27
59 -34 79 -13 34 -12 38 8 52 21 14 24 12 70 -36 26 -28 79 -92 116 -142z"/>
<path d="M23150 11917 c-57 -43 -166 -150 -233 -228 -98 -114 -256 -381 -324
-546 l-22 -53 29 -20 c30 -21 60 -26 60 -10 0 6 5 10 11 10 22 0 242 181 328
269 127 131 246 295 315 434 l39 78 -34 29 c-19 16 -38 29 -42 30 -5 0 -23 11
-40 24 l-32 25 -55 -42z m88 -79 c19 -19 -74 -179 -183 -315 -73 -90 -345
-349 -345 -328 0 24 164 316 189 335 3 3 17 21 31 40 39 56 40 57 151 171 104
107 130 124 157 97z"/>
<path d="M21360 11758 c-62 -65 -157 -202 -213 -308 -68 -126 -137 -334 -152
-455 -4 -27 -9 -59 -12 -70 -7 -25 -12 -276 -6 -309 4 -21 8 -24 24 -15 11 5
19 7 19 3 0 -3 6 -2 13 3 6 6 39 18 72 28 33 10 65 22 71 27 6 4 14 5 17 1 4
-3 12 -1 19 4 15 12 207 62 298 78 91 15 125 18 210 19 l95 0 -1 39 c-1 21 4
62 11 92 7 30 10 55 8 55 -8 0 60 124 80 147 l20 22 -54 54 c-84 82 -272 293
-314 351 -11 15 -30 40 -43 54 -13 15 -30 39 -40 55 -9 15 -20 27 -24 27 -4 0
-8 5 -8 10 0 6 -15 33 -34 61 l-34 51 -22 -24z m30 -138 c9 -17 7 -28 -8 -53
-43 -69 -114 -205 -110 -209 1 -2 -5 -14 -12 -28 -8 -14 -15 -27 -16 -30 0 -3
-3 -12 -7 -20 -35 -90 -73 -217 -83 -280 -3 -14 -9 -47 -14 -75 -6 -27 -12
-81 -15 -120 -5 -72 -19 -95 -56 -95 -15 0 -17 10 -14 83 6 122 18 209 40 290
8 26 11 47 7 47 -3 0 -1 5 6 12 7 7 12 18 12 26 0 36 111 279 153 336 4 6 22
34 40 61 53 84 59 88 77 55z m122 -162 c15 -20 33 -42 40 -50 7 -7 47 -52 88
-98 41 -47 90 -101 110 -121 77 -78 75 -74 53 -112 -30 -50 -61 -149 -66 -209
-1 -10 -8 -18 -17 -19 -8 0 -37 -2 -65 -4 -27 -2 -63 -5 -80 -8 -16 -3 -50 -9
-75 -12 -24 -4 -47 -8 -51 -11 -3 -2 -21 -6 -40 -8 -19 -3 -71 -16 -117 -30
-45 -13 -84 -21 -85 -17 -8 14 9 154 28 236 38 164 102 328 182 473 40 71 35
71 95 -10z"/>
<path d="M23438 11725 c-10 -13 -18 -29 -18 -34 0 -6 -4 -11 -8 -11 -5 0 -23
-21 -40 -47 -33 -52 -41 -62 -117 -156 -71 -88 -101 -122 -175 -195 -68 -68
-162 -142 -180 -142 -17 0 -12 -21 14 -54 26 -34 62 -108 70 -146 14 -60 18
-87 21 -120 3 -53 4 -57 18 -57 53 -1 358 -63 482 -98 50 -14 97 -27 106 -29
14 -2 26 -6 94 -32 11 -4 22 -8 25 -9 12 -4 47 -17 68 -26 35 -14 40 -11 37
16 -1 14 1 25 4 25 8 0 6 231 -3 304 -28 228 -113 463 -234 651 -50 79 -132
185 -141 185 -3 0 -14 -11 -23 -25z m90 -192 c72 -113 142 -260 167 -353 2 -8
11 -40 19 -70 29 -103 48 -242 50 -358 1 -41 -1 -75 -4 -77 -3 -1 -14 1 -26 5
-17 7 -22 23 -33 106 -18 144 -22 172 -42 249 -12 46 -62 196 -80 240 -7 17
-13 32 -14 35 -3 12 -80 166 -85 170 -3 3 -16 23 -29 44 -19 34 -21 43 -10 63
7 13 18 23 24 23 7 0 35 -35 63 -77z m-101 -125 c39 -76 92 -188 92 -193 0 -3
11 -40 25 -83 45 -138 63 -219 81 -370 6 -49 16 -49 -135 -9 -105 28 -283 66
-345 73 -22 3 -44 10 -50 15 -5 5 -17 42 -26 82 -9 40 -28 97 -42 128 l-25 56
54 43 c65 52 154 145 249 259 77 93 73 93 122 -1z"/>
<path d="M22344 11234 c-78 -38 -77 -161 2 -199 44 -21 75 -19 115 8 64 43 64
141 0 184 -39 27 -74 29 -117 7z m84 -90 c4 -29 -21 -48 -46 -35 -21 11 -23
26 -8 49 12 20 51 10 54 -14z"/>
<path d="M22705 10996 c-38 -16 -50 -32 -63 -77 -10 -39 6 -91 38 -116 44 -35
130 -23 164 24 42 58 16 148 -49 172 -39 14 -53 13 -90 -3z m74 -88 c12 -30
-9 -53 -38 -43 -23 7 -28 34 -9 53 19 19 38 14 47 -10z"/>
<path d="M22002 10971 c-34 -16 -62 -70 -57 -112 8 -76 95 -121 169 -88 52 24
73 114 39 166 -33 50 -91 63 -151 34z m81 -83 c14 -21 2 -48 -22 -48 -30 0
-45 34 -25 55 18 18 33 16 47 -7z"/>
<path d="M22314 10954 c-105 -51 -142 -162 -90 -267 16 -32 39 -61 62 -75 35
-23 128 -45 139 -34 3 3 15 7 27 9 48 7 100 55 128 116 38 84 -5 204 -90 247
-48 24 -132 26 -176 4z m156 -89 c19 -14 30 -25 24 -25 -5 0 -3 -4 4 -9 13 -8
18 -58 10 -93 -7 -28 -48 -66 -79 -73 -41 -9 -86 3 -116 31 -49 45 -30 160 30
184 42 17 92 11 127 -15z"/>
<path d="M22767 10707 c-8 -7 -17 -24 -21 -38 -4 -20 1 -31 22 -50 56 -51 137
-108 227 -161 33 -20 237 -122 245 -124 3 0 23 -8 45 -18 22 -9 48 -18 58 -19
9 -1 17 -4 17 -7 0 -4 6 -7 13 -7 6 -1 43 -10 80 -22 38 -11 81 -22 95 -25
117 -22 162 -28 174 -24 8 3 24 43 37 88 24 81 24 83 5 96 -10 7 -24 17 -30
21 -11 9 -35 23 -115 69 -88 49 -313 137 -409 159 -8 2 -37 9 -65 15 -27 7
-59 14 -70 15 -11 2 -38 6 -60 10 -22 3 -51 8 -64 11 -13 3 -51 7 -85 10 -34
2 -66 6 -73 9 -6 2 -18 -2 -26 -8z m296 -113 c186 -39 303 -78 456 -151 132
-63 170 -89 166 -112 -2 -9 -4 -19 -4 -23 -2 -15 -49 -8 -166 22 -191 49 -398
141 -552 245 l-68 45 50 -5 c28 -4 80 -13 118 -21z"/>
<path d="M21766 10682 c-2 -1 -25 -5 -52 -7 -27 -3 -60 -7 -74 -10 -14 -3 -38
-7 -55 -10 -16 -3 -41 -7 -55 -10 -14 -4 -38 -9 -55 -12 -65 -11 -274 -86
-367 -130 -81 -40 -97 -51 -93 -68 2 -11 4 -20 5 -20 1 0 3 -7 5 -15 21 -82
53 -133 78 -125 7 2 48 6 92 9 44 3 91 8 105 11 14 3 41 8 60 11 19 2 76 16
125 30 50 15 95 27 100 29 11 2 20 6 135 52 101 41 268 126 328 166 32 21 41
34 36 46 -3 9 -9 24 -11 34 -3 9 -10 18 -17 19 -21 2 -288 3 -290 0z m136 -88
c-23 -16 -207 -104 -217 -104 -4 0 -21 -7 -38 -14 -32 -15 -179 -63 -213 -71
-11 -2 -52 -11 -93 -19 -102 -22 -201 -29 -217 -15 -26 21 -14 44 34 66 101
48 284 109 384 129 65 12 161 26 223 31 39 3 71 6 72 7 1 0 20 2 44 3 39 2 40
1 21 -13z"/>
<path d="M22580 10582 c-37 -18 -65 -70 -61 -117 1 -19 14 -42 36 -62 28 -27
43 -33 77 -33 63 1 117 54 113 110 -2 37 -16 80 -25 80 -5 0 -15 7 -23 15 -22
22 -79 25 -117 7z m84 -89 c9 -22 -13 -45 -38 -41 -24 3 -33 33 -16 52 13 17
46 10 54 -11z"/>
<path d="M22173 10578 c-101 -27 -111 -169 -14 -212 101 -45 194 64 141 164
-21 39 -78 61 -127 48z m57 -97 c14 -28 -13 -55 -41 -41 -19 10 -26 40 -12 53
13 14 43 7 53 -12z"/>
<path d="M21810 10367 c-239 -119 -576 -247 -673 -256 -8 -1 31 -80 44 -91 4
-3 15 -19 25 -36 47 -77 232 -275 312 -334 19 -14 39 -30 45 -35 44 -38 237
-146 312 -175 11 -4 34 -14 50 -21 17 -7 35 -14 40 -14 6 -1 35 -9 65 -19 30
-10 66 -20 80 -22 l25 -4 1 167 c0 205 8 327 31 443 3 19 7 42 7 50 1 8 5 21
9 28 5 6 6 12 3 12 -3 0 6 32 20 72 29 85 28 78 8 78 -44 0 -152 67 -222 137
-40 40 -73 73 -75 72 -1 0 -49 -24 -107 -52z m128 -86 c20 -21 71 -61 113 -87
69 -45 75 -51 68 -72 -5 -13 -11 -33 -13 -45 -3 -12 -8 -33 -11 -47 -3 -14 -8
-38 -10 -55 -2 -16 -6 -43 -9 -60 -7 -39 -19 -187 -20 -247 0 -27 -5 -48 -10
-48 -24 0 -241 118 -318 173 -122 88 -153 113 -232 193 -124 123 -128 103 36
168 79 31 193 80 253 110 61 30 111 55 113 55 1 1 19 -16 40 -38z m-591 -257
c24 -25 43 -47 43 -49 0 -2 23 -26 52 -52 28 -26 61 -57 72 -68 37 -36 179
-140 256 -187 72 -44 223 -119 265 -132 16 -4 21 -14 20 -40 l0 -34 -45 15
c-25 8 -58 18 -73 23 -16 5 -35 14 -43 21 -8 6 -14 9 -14 6 0 -6 -202 102
-210 112 -3 3 -27 22 -55 41 -64 44 -103 79 -188 163 -66 67 -167 192 -167
208 0 6 6 9 40 18 2 0 23 -19 47 -45z"/>
<path d="M22379 10393 c-5 -12 -14 -35 -20 -50 -18 -44 -69 -225 -75 -263 -3
-19 -9 -60 -15 -90 -30 -174 -30 -431 1 -590 4 -25 9 -47 9 -50 2 -9 181 -8
187 1 15 24 51 188 62 284 11 98 5 510 -8 510 -1 0 -3 11 -6 25 -18 114 -30
175 -42 215 -7 26 -13 30 -46 31 -31 1 -39 -4 -47 -23z m49 -221 c-5 -2 -4
-10 2 -16 15 -19 25 -160 24 -341 -1 -122 -6 -186 -23 -269 -12 -61 -24 -113
-27 -118 -8 -13 -61 -9 -61 5 0 6 -4 50 -9 97 -11 122 -6 335 10 416 2 12 7
37 10 55 14 83 21 116 48 214 l11 40 12 -40 c7 -22 8 -42 3 -43z"/>
<path d="M22848 10366 c-55 -62 -132 -116 -205 -142 -47 -17 -52 -21 -48 -44
2 -14 6 -45 9 -70 3 -25 8 -56 11 -70 3 -14 8 -54 11 -90 2 -36 7 -76 10 -90
3 -14 8 -133 10 -264 2 -132 5 -241 7 -243 11 -10 258 68 329 104 15 7 29 13
30 12 2 -1 38 19 81 45 43 25 82 46 87 46 5 0 10 4 12 8 2 5 26 24 53 42 138
94 316 285 404 432 l22 36 -32 7 c-17 4 -77 23 -133 42 -55 19 -105 35 -111
37 -5 2 -19 7 -30 11 -11 4 -54 21 -95 37 -101 40 -243 115 -312 166 -32 23
-59 42 -61 42 -2 0 -24 -24 -49 -54z m105 -85 c53 -35 246 -130 355 -172 45
-18 82 -36 82 -39 0 -3 -35 -42 -77 -86 -65 -67 -115 -110 -248 -212 -29 -23
-170 -103 -230 -132 -104 -50 -105 -50 -106 18 -2 93 -11 221 -24 317 -12 92
-17 132 -20 152 -3 18 6 26 43 44 49 23 122 78 157 116 11 13 21 23 23 23 2 0
22 -13 45 -29z m572 -247 c20 -5 22 -8 10 -22 -111 -139 -178 -210 -259 -276
-21 -17 -43 -36 -50 -41 -26 -24 -196 -126 -257 -154 -65 -30 -228 -93 -230
-88 -1 1 -3 14 -4 28 -3 24 2 29 43 44 54 20 187 88 210 107 8 7 17 12 18 11
5 -4 135 81 164 107 14 12 36 30 50 39 39 25 192 175 225 220 17 23 36 39 43
36 8 -3 24 -8 37 -11z"/>
</g>
</svg>
